<svg version="1.2" xmlns="http://www.w3.org/2000/svg" viewBox="0 0 400 171" width="480" height="205">
	<title>logo-svg</title>
	<style>
		.s0 { fill: #052d5c } 
		.s1 { fill: #2cd3c4 } 
		.s2 { fill: #bfccd4 } 
	</style>
	<g id="svgg">
		<path id="path0" fill-rule="evenodd" class="s0" d="m91.5 40.7h9c10 0 9.9 0 10.2 1.2 0.1 0.7 0.1 80.6 0 81.3-0.1 0.6-0.3 0.7-0.9 1l-0.8 0.4h-8.7l-8.6-0.1-0.5-0.4c-0.8-0.5-0.8 1.1-0.7-42.7v-39.9l0.5-0.4zm-38.4 16.7c0.3 0.1 1.1 0.3 1.8 0.3 0.7 0.1 1.4 0.2 1.6 0.4 0.2 0.1 0.5 0.2 0.7 0.2 0.2 0 0.6 0.2 1 0.4 0.3 0.1 0.7 0.3 0.8 0.3 0.2 0 2.8 1.2 3.4 1.5 0.1 0.1 0.4 0.3 0.7 0.4 0.2 0.1 0.5 0.2 0.6 0.3 0.2 0.1 0.5 0.3 0.8 0.4 0.3 0.1 0.8 0.5 1.2 0.8 0.4 0.3 0.7 0.5 0.8 0.5 0.1 0 0.4 0.3 0.7 0.5 0.3 0.3 1 0.8 1.4 1.1 1.2 0.9 5.9 5.9 5.9 6.4 0 0 0.3 0.5 0.7 0.9 0.4 0.5 0.7 0.9 0.7 1 0 0.1 0.3 0.5 0.6 1 0.3 0.5 0.6 1 0.6 1.1 0 0.2 0.1 0.5 0.3 0.8 0.2 0.2 0.4 0.6 0.4 0.8 0 0.2 0.1 0.5 0.2 0.6 0.1 0.1 0.3 0.5 0.4 0.8 0 0.3 0.2 0.6 0.3 0.8 0.1 0.1 0.3 0.5 0.3 0.9 0.1 0.4 0.3 0.8 0.4 1 0.1 0.2 0.2 0.6 0.2 0.9 0 0.3 0.2 0.7 0.3 1q0.3 0.5 0.4 3c0.1 1.4 0.3 2.7 0.4 3 0.3 0.8 0.2 31.5-0.1 32-0.1 0.3-0.3 0.6-0.3 0.9 0 0.4-1.4 2-1.7 2-0.1 0-0.3 0.1-0.5 0.3-0.9 0.8-4.6 1.2-6.1 0.7-0.5-0.1-1.2-0.3-1.6-0.4-0.4 0-0.9-0.2-1.1-0.3-0.2-0.1-0.5-0.3-0.8-0.3-0.6-0.2-1.9-1-3.4-2.1-1-0.9-1.7-1.1-1.9-0.8-0.1 0.1-0.4 0.2-0.6 0.3-0.3 0-0.6 0.2-0.7 0.3-0.1 0.2-0.4 0.3-0.7 0.4-0.2 0-0.6 0.2-0.7 0.3-0.1 0.1-0.6 0.3-0.9 0.3-0.4 0.1-0.9 0.3-1.2 0.4-0.2 0.1-0.6 0.3-0.8 0.3-0.2 0-0.6 0.1-1 0.3-0.3 0.2-0.9 0.3-1.3 0.3-0.4 0-0.9 0.1-1 0.3-0.2 0.1-1.1 0.3-2 0.3-0.8 0.1-1.8 0.2-2 0.3-0.7 0.3-4.9 0.4-5.9 0.2-0.4-0.1-1.6-0.3-2.6-0.4-1-0.2-1.9-0.3-2-0.4-0.1-0.1-0.7-0.3-1.2-0.3-0.5-0.1-1-0.2-1.1-0.3-0.1-0.1-0.5-0.3-0.9-0.4-0.8-0.1-2.1-0.6-3-1-0.4-0.2-0.8-0.3-0.9-0.3-0.1 0-0.3-0.1-0.4-0.3-0.1-0.1-0.4-0.2-0.5-0.2-0.2 0-0.4-0.1-0.6-0.2-0.4-0.4-1.6-1.2-1.8-1.2-0.1 0-0.2-0.1-0.2-0.2 0-0.1-0.2-0.2-0.5-0.4-0.8-0.3-1.2-0.6-2-1.3-0.4-0.4-0.8-0.7-0.9-0.7-0.2 0-5.5-5.2-5.5-5.4 0-0.3-2-3.3-2.2-3.3-0.1 0-0.2-0.2-0.3-0.6-0.1-0.3-0.3-0.6-0.4-0.6 0 0-0.2-0.2-0.2-0.6-0.1-0.3-0.2-0.6-0.4-0.7-0.1-0.2-0.2-0.4-0.2-0.5 0-0.2-0.2-0.5-0.4-0.8-0.2-0.3-0.3-0.7-0.3-0.8 0-0.2-0.2-0.6-0.4-1-0.1-0.3-0.3-0.7-0.3-0.9 0-0.1-0.1-0.4-0.3-0.5-0.1-0.1-0.2-0.4-0.2-0.7 0-0.3-0.1-0.9-0.3-1.2-0.1-0.4-0.3-1.4-0.4-2.3-0.1-0.9-0.2-1.9-0.4-2.2-0.3-0.9-0.3-7.5 0-8.1 0.2-0.2 0.3-1.1 0.3-2.1 0.1-1 0.2-1.9 0.4-2.1 0.1-0.2 0.3-0.7 0.3-1.1 0.1-0.4 0.2-0.9 0.4-1.1 0.1-0.2 0.2-0.6 0.3-1 0-0.3 0.2-0.7 0.3-0.8 0.2-0.1 0.3-0.4 0.3-0.6 0-0.2 0.1-0.5 0.2-0.6 0.2-0.1 0.3-0.5 0.4-0.7 0.1-0.5 0.5-1.6 0.9-2.2 0.7-1.2 1.2-2 2-3 0.5-0.7 0.9-1.3 0.9-1.4 0-0.2 2.8-3.2 4.1-4.5 0.4-0.3 0.8-0.7 1.1-0.8 0.2-0.1 0.8-0.5 1.2-0.9 1-0.9 2.3-1.8 3.7-2.5 0.5-0.3 1.1-0.5 1.2-0.6 0.2-0.1 0.5-0.2 0.7-0.3 0.2-0.1 0.9-0.5 1.6-0.8 0.6-0.3 1.3-0.6 1.4-0.6 0.1 0 0.5-0.2 0.9-0.3 0.3-0.2 0.8-0.4 1.1-0.4 0.2 0 0.5-0.1 0.6-0.2 0.1-0.2 0.7-0.3 1.5-0.4 0.7 0 1.5-0.2 1.8-0.3 0.2-0.1 1.2-0.2 2.2-0.3 2.7-0.2 9 0 9.7 0.3zm182.5 0.6c0.4 0.2 1.1 0.3 1.7 0.3 0.5 0 1.2 0.2 1.6 0.4 0.4 0.1 0.8 0.3 1 0.3 0.3 0 0.7 0.1 1.1 0.3 0.3 0.2 0.8 0.4 1 0.4 0.2 0 0.4 0.1 0.6 0.2 0.1 0.2 0.3 0.3 0.5 0.3 0.1 0 0.4 0.1 0.6 0.3 0.3 0.2 0.5 0.4 0.7 0.4 0.1 0 0.7 0.2 1.3 0.6 1.6 0.8 1.8 0.7 3.6-1 1-1 0.8-1 9-1 7.6 0.1 7.1 0 7.6 1.4 0.6 2.2 0.2 60.2-0.5 61.3-0.2 0.2-0.3 0.7-0.3 1.2 0 0.5-0.1 1.1-0.3 1.5-0.2 0.3-0.4 0.8-0.4 1.1 0 0.3-0.1 0.6-0.2 0.7-0.1 0.1-0.3 0.5-0.4 0.9 0 0.4-0.2 0.8-0.3 1-0.1 0.1-0.3 0.5-0.3 0.8-0.1 0.4-0.3 0.8-0.4 0.9-0.1 0.1-0.2 0.3-0.2 0.4 0 0.1-0.5 0.8-1 1.6-0.5 0.8-0.9 1.5-0.9 1.5 0 0.1-0.2 0.3-0.4 0.5-0.2 0.1-0.3 0.3-0.3 0.5 0 0.3-4.2 4.2-5.2 4.7-0.4 0.3-1.1 0.7-1.4 1-0.4 0.3-0.8 0.6-1 0.6-0.2 0.1-0.5 0.2-0.6 0.4-0.1 0.1-0.4 0.2-0.6 0.2-0.2 0-0.5 0.1-0.6 0.3-0.1 0.1-0.5 0.3-0.8 0.3-0.4 0.1-0.9 0.2-1.2 0.4-0.3 0.1-0.8 0.2-1.2 0.3-0.4 0.1-0.8 0.2-1 0.3-0.2 0.2-0.8 0.3-1.3 0.4-0.5 0-1.2 0.2-1.4 0.3-0.3 0.2-1 0.3-1.5 0.3-0.6 0-1.3 0.1-1.7 0.3-1.1 0.4-14.4 0.4-15.5 0-0.4-0.2-1.1-0.3-1.6-0.3-0.4 0-1.2-0.2-1.7-0.3-0.6-0.2-1.2-0.4-1.5-0.4-0.2 0-0.6-0.1-0.9-0.2-0.2-0.2-0.8-0.3-1.3-0.4-0.4-0.1-1-0.2-1.3-0.4-0.2-0.1-0.7-0.2-0.9-0.2-0.3 0-0.8-0.1-1.2-0.3-0.3-0.2-0.7-0.4-0.9-0.4-0.2 0-0.4-0.1-0.5-0.2-0.2-0.2-0.5-0.3-0.8-0.4-0.3 0-0.6-0.2-0.8-0.3-0.1-0.1-0.5-0.3-0.8-0.3-0.3-0.1-0.6-0.3-0.7-0.4-0.1-0.1-0.3-0.3-0.5-0.3-0.1 0-0.5-0.1-0.8-0.3-0.4-0.2-0.8-0.3-1-0.3-0.1 0-0.3-0.2-0.5-0.3-0.1-0.1-0.3-0.2-0.4-0.2-0.9 0-1.4-2.1-0.8-3.3 0.2-0.3 0.4-0.7 0.4-0.9 0-0.1 0.1-0.3 0.2-0.5 0.2-0.1 0.3-0.3 0.3-0.5 0-0.1 0.1-0.4 0.3-0.6 0.2-0.1 0.4-0.4 0.4-0.6 0-0.2 0.1-0.4 0.2-0.4 0.1-0.1 0.4-0.4 0.5-0.8 0.2-0.3 0.6-1 0.9-1.6 0.7-1.2 0.9-1.7 0.9-2 0-0.1 0.3-0.6 0.6-1.1 0.4-0.5 0.6-1 0.6-1.2 0-0.1 0.2-0.3 0.4-0.5 0.2-0.1 0.3-0.4 0.3-0.5 0-1.5 2.5-2.5 3.6-1.5 0.2 0.1 0.4 0.2 0.6 0.2 0.2 0 0.5 0.2 0.7 0.4 0.3 0.2 0.6 0.3 0.7 0.3 0.1 0 0.5 0.2 0.9 0.4 0.3 0.1 0.7 0.3 0.8 0.3 0.1 0 0.3 0.1 0.4 0.2 0.1 0.2 0.4 0.3 0.5 0.3 0.2 0 0.6 0.2 0.9 0.3 0.4 0.2 0.9 0.4 1.1 0.4 0.3 0 0.7 0.1 0.9 0.2 0.2 0.2 0.9 0.3 1.6 0.4 0.7 0.1 1.5 0.2 1.8 0.4 0.7 0.3 9.3 0.3 9.8 0 0.3-0.2 1-0.3 1.6-0.4 2.2-0.2 4.7-1.7 5.8-3.4 1-1.6 1.2-2.1 1.6-4.5 0.2-1.1-0.4-2-1-1.5-0.1 0.1-0.5 0.3-0.9 0.3-0.4 0.1-0.8 0.3-1 0.4-0.2 0.1-0.7 0.2-1.1 0.3-0.4 0.1-0.9 0.2-1.1 0.3-0.2 0.2-1 0.3-1.8 0.4-0.8 0-1.6 0.2-1.7 0.3-0.5 0.4-10 0.3-11-0.1-0.5-0.2-1.3-0.3-1.8-0.3-0.6 0-1.2-0.1-1.5-0.3-0.3-0.1-0.9-0.3-1.3-0.3-0.4-0.1-0.8-0.2-0.9-0.4-0.1-0.1-0.3-0.2-0.5-0.2-0.3 0-0.7-0.1-1.1-0.3-0.3-0.2-0.7-0.4-0.9-0.4-0.1 0-0.4-0.1-0.7-0.3-0.2-0.2-0.5-0.4-0.7-0.4-0.2 0-0.4-0.1-0.5-0.2-0.1-0.2-0.4-0.3-0.5-0.3-0.2 0-0.5-0.1-0.7-0.2-0.2-0.2-0.6-0.4-0.9-0.5-0.3-0.1-0.5-0.2-0.5-0.3 0-0.1-0.8-0.6-1.7-1.3-1-0.6-2-1.4-2.4-1.8-0.3-0.3-1-0.9-1.4-1.3-1.3-1.1-4.6-5.4-4.6-5.8 0-0.1-0.1-0.5-0.3-0.9-0.2-0.3-0.3-0.7-0.3-0.8 0-0.1-0.2-0.3-0.3-0.4-0.1-0.1-0.3-0.4-0.3-0.6-0.1-0.3-0.3-0.6-0.4-0.7-0.1-0.2-0.2-0.4-0.2-0.6 0-0.2-0.2-0.7-0.4-1.1-0.2-0.3-0.3-0.8-0.3-1 0-0.2-0.1-0.5-0.3-0.7-0.1-0.2-0.3-0.9-0.3-1.5-0.1-0.7-0.3-1.5-0.4-1.8-0.3-0.8-0.3-6 0-6.8 0.1-0.3 0.3-1 0.4-1.7 0-0.7 0.2-1.4 0.3-1.7 0.2-0.2 0.3-0.6 0.3-0.9 0-0.3 0.1-0.8 0.3-1.1 0.2-0.4 0.4-0.8 0.4-1.1 0-0.2 0.1-0.5 0.2-0.6 0.2-0.2 0.3-0.5 0.4-0.8 0-0.3 0.2-0.6 0.3-0.7 0.1-0.1 0.3-0.4 0.3-0.5 0-0.2 0.1-0.6 0.3-0.9 0.2-0.4 0.3-0.8 0.3-1 0-0.2 0.1-0.4 0.3-0.6 0.1-0.1 0.4-0.6 0.7-1 0.2-0.5 0.7-1.3 1-1.7 0.3-0.4 0.6-0.9 0.6-1 0 0 0.2-0.2 0.3-0.4 0.2-0.2 0.4-0.4 0.4-0.5 0-0.4 5.7-6.3 6-6.3 0.1 0 0.6-0.3 1.1-0.6 1.4-1.2 1.5-1.2 1.6-1.2 0.1 0 0.6-0.3 1-0.6 0.5-0.4 1-0.6 1.2-0.6 0.1 0 0.5-0.2 0.8-0.4 0.3-0.2 0.7-0.3 0.9-0.3 0.2 0 0.4-0.1 0.5-0.3 0.1-0.1 0.6-0.3 1-0.4 0.4-0.1 0.8-0.3 0.8-0.4 0.1 0 0.4-0.1 0.6-0.1 0.3 0 0.8-0.2 1.1-0.4 0.4-0.2 0.9-0.3 1.2-0.3 0.3 0 0.8-0.1 1.1-0.3 0.3-0.1 1.1-0.3 1.9-0.4 0.8 0 1.6-0.2 1.8-0.3 0.6-0.3 5.6-0.3 6.5 0zm-92.4 1.6c1.2 0.3 1.1-0.9 1.2 18.1 0 9.4 0 17.2 0.1 17.4 0.1 0.1 0.2 1 0.3 1.9 0.1 1 0.2 1.8 0.4 2 0.1 0.2 0.3 0.6 0.3 0.7 0 1.1 3.1 4.8 4.5 5.5 0.4 0.2 0.8 0.4 0.8 0.5 0.1 0.1 0.4 0.1 0.6 0.1 0.3 0 0.7 0.2 0.9 0.3 0.8 0.6 6.3 0.6 7.2 0 0.2-0.1 0.6-0.3 0.9-0.3 0.5 0 2.1-0.6 2.3-1 0.1 0 0.5-0.3 0.9-0.6 1.3-0.9 3.6-3.3 3.6-3.8 0-0.1 0.1-0.3 0.2-0.4 0.1-0.1 0.3-0.4 0.4-0.6 0-0.3 0.2-0.6 0.3-0.7 0.1-0.2 0.3-0.7 0.4-1.2 0.1-0.6 0.3-1.3 0.4-1.8 0.1-0.4 0.1-7.1 0.1-18.1 0-9.5 0.1-17.4 0.2-17.5 0.3-0.5 1.5-0.6 10.1-0.6 10.1 0 9.5 0 10 1.1l0.3 0.9 0.1 29.9c0 21.2 0 30.1-0.1 30.7-0.2 0.4-0.3 1-0.3 1.2-0.3 1.2-0.4 1.2-7.9 1.3-6.5 0-6.7 0-7.3-0.3-0.4-0.2-0.8-0.4-0.9-0.4-0.1 0-0.9-1.1-0.9-1.3 0-0.1-0.2-0.3-0.3-0.4-0.2-0.2-0.4-0.5-0.4-0.6 0-0.2-0.1-0.5-0.3-0.6-0.2-0.2-0.4-0.4-0.4-0.5 0-0.2-0.9-1.6-1.3-1.9-0.3-0.3-1.4 0.3-2.4 1.3-0.2 0.2-0.4 0.3-0.5 0.3-0.1 0-0.5 0.3-0.9 0.6-0.4 0.3-0.9 0.7-1.1 0.7-0.2 0.1-0.5 0.3-0.5 0.4-0.1 0.1-0.3 0.2-0.4 0.2-0.2 0-0.6 0.1-1 0.3-0.3 0.2-0.7 0.4-0.8 0.4-0.2 0-0.4 0.1-0.5 0.2-0.1 0.1-0.5 0.3-0.8 0.4-0.3 0-0.8 0.2-1 0.3-0.2 0.1-0.6 0.3-0.9 0.3-0.3 0.1-0.8 0.3-0.9 0.4-0.2 0.1-0.7 0.2-1 0.2-0.4 0-1.1 0.2-1.6 0.4-1 0.4-10.6 0.4-11.1 0-0.1-0.1-0.7-0.3-1.2-0.3-0.5-0.1-1-0.2-1.1-0.3-0.2-0.1-0.6-0.3-0.9-0.4-0.3 0-0.7-0.2-0.9-0.3-0.2-0.1-0.6-0.3-0.9-0.3-0.3-0.1-0.6-0.2-0.6-0.3 0-0.1-0.2-0.2-0.4-0.3-0.3 0-0.7-0.2-0.9-0.4-0.3-0.2-0.5-0.3-0.7-0.3-0.2 0-1.6-1-2.3-1.6-0.1-0.2-0.3-0.3-0.4-0.3-0.6 0-4.9-5-5.7-6.5-0.5-1.2-0.7-1.5-1.2-2.3-0.2-0.2-0.3-0.6-0.3-0.8 0-0.1-0.2-0.4-0.3-0.5-0.1-0.1-0.3-0.4-0.3-0.7-0.1-0.3-0.3-0.7-0.4-0.9-0.1-0.2-0.2-0.8-0.3-1.3-0.1-0.5-0.2-1.1-0.4-1.4-0.1-0.2-0.2-0.8-0.2-1.2 0-0.4-0.2-1-0.3-1.4-0.5-1.2-0.6-7.1-0.5-25.2 0-19.1 0-18.2 1-18.4 0.6-0.1 17.6-0.1 18.2 0zm-98.9 17.2c-0.1 0.2-0.7 0.3-1.1 0.4-0.5 0-1 0.2-1.2 0.3-0.2 0.2-0.6 0.3-0.8 0.3-0.3 0-0.6 0.1-0.7 0.3-0.1 0.1-0.3 0.2-0.4 0.2-0.8 0-4.2 3.4-5.1 5-0.3 0.5-0.5 1-0.6 1.1-0.4 0.5-0.9 2.2-1 3.3 0 0.7-0.2 1.4-0.3 1.6-0.2 0.4-0.2 2.6 0 3.1 0.1 0.2 0.3 1 0.4 1.7 0.1 1.5 0.6 2.9 1 3.4 0.1 0.1 0.2 0.3 0.2 0.4 0 0.2 1.5 2.2 1.7 2.3 0.1 0 0.2 0.1 0.2 0.2 0 0.4 1.6 1.8 2.7 2.3 0.2 0.1 0.8 0.5 1.2 0.7 0.4 0.3 1 0.5 1.2 0.5 0.2 0 0.6 0.2 0.8 0.3 1.1 0.8 7.7 0.8 8.8 0 0.2-0.1 0.6-0.2 0.8-0.2 0.4 0 1.9-0.8 2.8-1.5 0.3-0.2 0.7-0.4 0.9-0.4 0.2 0 2-1.7 2.5-2.5 0.2-0.3 0.7-1 1.1-1.6 0.4-0.6 0.8-1.2 0.8-1.4 0-0.1 0.1-0.5 0.3-0.9q0.3-0.6 0.4-1.6c0-0.6 0.1-1.3 0.2-1.7 0.3-0.8 0.3-2.8 0.1-3.1-0.1-0.1-0.3-0.8-0.3-1.6-0.1-0.8-0.3-1.7-0.5-2-0.1-0.2-0.2-0.6-0.2-0.7 0-0.2-0.1-0.4-0.2-0.5-0.1 0-0.4-0.5-0.6-1-0.5-0.9-1.9-2.6-2.7-3.3-0.3-0.2-0.6-0.6-0.8-0.7-0.6-0.6-2.5-1.7-2.9-1.7-0.2 0-0.7-0.2-1-0.3-0.4-0.2-0.9-0.4-1.2-0.4-0.3 0-0.6-0.1-0.8-0.2-0.5-0.4-5.2-0.4-5.7-0.1zm186.2 0c-0.2 0.2-0.6 0.3-1 0.4-0.4 0-0.8 0.2-1 0.3-0.1 0.2-0.4 0.3-0.7 0.3-0.2 0-0.5 0.1-0.7 0.2-0.1 0.1-0.4 0.3-0.6 0.4-1.2 0.6-4.5 4-4.5 4.7 0 0.1-0.1 0.4-0.3 0.6-0.2 0.3-0.3 0.6-0.3 0.8 0 0.1-0.1 0.4-0.3 0.5-0.1 0.1-0.3 0.6-0.3 1.1-0.1 0.6-0.2 1.1-0.3 1.2-0.2 0.3-0.3 2-0.2 2.7 0.4 1.7 0.7 2.7 0.9 2.9 0.1 0.1 0.2 0.3 0.2 0.5 0 0.9 3.4 5 4.6 5.5 0.3 0.1 0.5 0.2 0.5 0.3 0 0.1 2.5 1.4 3.9 1.8 1.4 0.5 5.2 0.6 6.1 0.1 0.2-0.1 0.8-0.3 1.1-0.3 0.4-0.1 0.8-0.2 0.9-0.4 0.1-0.1 0.3-0.2 0.5-0.2 0.1 0 0.7-0.3 1.2-0.7 0.5-0.4 1-0.7 1.1-0.7 0.3 0 2.6-2.3 3.3-3.3 0.3-0.5 0.6-1 0.8-1.2 0.1-0.2 0.2-0.5 0.2-0.6 0-0.2 0.1-0.4 0.3-0.7 0.1-0.2 0.3-0.7 0.4-1.1 0.1-0.5 0.3-1.3 0.4-1.8 0.2-0.8 0.2-1.2 0-1.9-0.1-0.5-0.3-1.4-0.4-2 0-0.6-0.2-1.2-0.4-1.3-0.1-0.2-0.3-0.5-0.3-0.7 0-0.2-0.1-0.5-0.2-0.6-0.2-0.1-0.3-0.4-0.4-0.6-0.4-1.2-4.4-5.2-5.3-5.2-0.1 0-0.5-0.2-0.9-0.3-0.3-0.2-0.8-0.4-1-0.4-0.2 0-0.5-0.1-0.6-0.2-0.5-0.4-6.2-0.4-6.7-0.1z"/>
		<path id="path1" fill-rule="evenodd" class="s1" d="m379.8 40.9c0.2 0.1 1 0.2 1.7 0.3 0.7 0.1 1.4 0.3 1.6 0.4 0.2 0.2 0.5 0.3 0.7 0.3 0.1 0 0.5 0.1 0.7 0.3 0.2 0.2 0.6 0.4 0.9 0.4 0.2 0 0.4 0 0.4 0.1 0 0.1-0.2 0.2-0.4 0.2-0.4 0-0.5 0.1-0.7 0.6-0.3 0.6-0.4 0.8-1.3 2.1-1.8 2.6-5.8 6.2-6.9 6.2-0.1 0-0.3 0.1-0.5 0.3-0.2 0.2-0.5 0.4-0.7 0.4-0.2 0-0.5 0.1-0.6 0.2-0.1 0.2-0.3 0.3-0.5 0.3-0.1 0-0.5 0.1-0.9 0.3-0.4 0.2-1.2 0.4-1.8 0.5-0.5 0.1-1.3 0.3-1.7 0.4-0.3 0.1-1.9 0.2-3.4 0.2-1.5 0-3-0.1-3.4-0.2-0.4-0.1-1.2-0.3-1.7-0.4-0.6-0.1-1.3-0.3-1.7-0.5-0.3-0.2-0.7-0.3-0.9-0.3-0.4 0-0.3-0.9 0.2-1.7 0.2-0.4 0.5-1 0.6-1.2 0.1-0.2 0.3-0.6 0.5-0.7 0.1-0.1 0.6-0.7 1-1.3 1.4-1.7 3.1-3.3 4-3.7 0.1-0.1 0.5-0.3 0.9-0.6 0.4-0.2 0.9-0.5 1.2-0.6 0.3-0.2 0.6-0.4 0.7-0.5 0-0.1 0.2-0.1 0.4-0.1 0.2 0 0.5-0.2 0.7-0.4 0.3-0.2 0.7-0.3 0.9-0.3 0.2 0 0.5-0.1 0.7-0.3 0.2-0.1 1-0.3 1.9-0.4 0.8-0.1 1.6-0.2 1.8-0.3 0.4-0.3 5-0.3 5.6 0zm-64.9 17.7c0.2 0.1 0.8 0.3 1.5 0.4 0.7 0 1.6 0.2 1.9 0.4 0.4 0.1 0.9 0.3 1.1 0.3 0.3 0 0.7 0.1 0.9 0.2 0.2 0.1 0.6 0.3 0.9 0.4 0.4 0 0.8 0.2 0.9 0.3 0.1 0.1 0.4 0.3 0.6 0.3 0.3 0 0.7 0.1 1 0.3 0.3 0.2 0.6 0.3 0.8 0.3 0.2 0 0.5 0.2 0.8 0.4 0.2 0.2 0.5 0.3 0.7 0.3 0.2 0 0.4 0.1 0.4 0.3 0.1 0.1 0.3 0.3 0.5 0.3 0.3 0.1 0.6 0.2 0.8 0.4 0.6 0.6 0.8 0.7 1.6 1.2 0.5 0.2 1.4 0.9 2.1 1.6 0.7 0.6 1.6 1.4 2 1.7 0.4 0.3 1.1 1.2 1.7 1.9 0.6 0.7 1.4 1.6 1.8 2 0.4 0.4 0.9 1.2 1.2 1.8 0.3 0.6 0.6 1.2 0.7 1.2 0.1 0.1 0.3 0.3 0.4 0.5 0 0.2 0.3 0.7 0.5 1.1 0.3 0.3 0.5 0.8 0.6 0.9 0 0.1 0.2 0.5 0.4 0.9 0.2 0.3 0.3 0.8 0.3 1 0 0.2 0.2 0.6 0.4 1 0.2 0.3 0.3 0.8 0.3 1 0 0.2 0.1 0.4 0.2 0.5 0.2 0.1 0.3 0.6 0.4 1.1 0.1 0.4 0.2 1 0.4 1.3 0.1 0.2 0.2 0.7 0.2 1.1 0 0.3 0.1 0.9 0.3 1.2 0.6 1.6 0.7 35.7 0.1 36.4-0.1 0.1-0.4 0.5-0.7 0.9-0.6 0.9-1.7 1.8-2.2 1.8-0.2 0-0.7 0.1-1 0.3-0.9 0.3-3.9 0.3-4.9 0-0.4-0.2-1-0.3-1.4-0.3-0.4 0-0.9-0.1-1.1-0.3-0.3-0.1-0.6-0.2-0.7-0.3-0.2-0.1-0.4-0.2-0.5-0.3-0.2-0.1-0.6-0.3-0.9-0.5-0.4-0.2-1.2-0.8-1.8-1.3-1.1-1-1.2-1-1.6-0.8-0.3 0.1-0.6 0.3-0.8 0.3-0.2 0-0.6 0.1-0.9 0.3-0.3 0.1-0.8 0.3-1.1 0.4-0.2 0.1-0.5 0.2-0.5 0.3 0 0.1-0.3 0.2-0.7 0.2-0.4 0.1-0.9 0.3-1 0.4-0.1 0.1-0.3 0.2-0.5 0.2-0.2 0-0.7 0.2-1 0.4-0.4 0.2-0.9 0.3-1.2 0.3-0.3 0-0.8 0.1-1.1 0.3-0.3 0.1-1.3 0.3-2.4 0.4-1 0.1-2.2 0.2-2.5 0.3-0.7 0.3-5.2 0.3-6 0-0.3-0.1-1.4-0.2-2.5-0.3-1-0.1-2.1-0.3-2.4-0.4-0.2-0.2-0.6-0.3-0.9-0.3-0.2 0-0.7-0.1-1.1-0.3-0.4-0.2-0.8-0.4-1-0.4-0.1 0-0.5-0.1-0.7-0.2-0.3-0.2-0.7-0.4-0.9-0.5-0.3 0-0.6-0.2-0.7-0.3-0.6-0.3-1.9-0.8-2.1-0.8-0.2 0-0.4-0.1-0.5-0.3-0.1-0.1-0.4-0.3-0.7-0.4-1.1-0.6-1.5-0.8-2.7-1.8-0.5-0.3-0.9-0.6-1-0.6-0.1 0-0.3-0.2-0.5-0.4-0.4-0.3-0.6-0.3-1.8-0.3-0.9 0.1-1.4 0-1.5-0.1-0.3-0.3-0.3-2.7 0-3.1 0.1-0.1 0.3-0.8 0.4-1.6 0-0.8 0.2-1.8 0.4-2.1 0.1-0.4 0.2-1.1 0.2-1.6 0-0.5 0.1-1.1 0.3-1.4 0.1-0.2 0.3-1.3 0.3-2.2 0.1-1 0.2-1.9 0.3-2 0.1-0.1 0.2-0.5 0.3-0.8 0.4-1.1 1.3-1.3 6.2-1.4 2.2-0.1 4.2-0.2 4.4-0.3 0.1-0.1 1.3-0.2 2.5-0.2 3.2-0.2 3.8 0.4 2.7 2.5l-0.4 0.9 0.5 0.4c0.3 0.3 0.8 0.5 1 0.5 0.3 0 0.8 0.2 1.2 0.4 0.8 0.3 5.2 0.4 6.5 0.1 0.3-0.1 1-0.3 1.5-0.3 0.5-0.1 1.1-0.3 1.4-0.5 0.3-0.1 0.7-0.2 1-0.3 0.2-0.1 0.5-0.2 0.5-0.3 0.1 0 0.4-0.2 0.7-0.4 1-0.4 3.6-2.9 4.2-4.1 0.3-0.4 0.7-1.2 0.9-1.6 0.6-1.1 0.8-1.5 0.8-2 0-0.3 0.1-0.7 0.3-0.9 0.4-0.6 0.4-6.2 0-6.8-0.2-0.3-0.3-0.7-0.4-1.1-0.1-0.3-0.2-0.6-0.3-0.7 0-0.1-0.2-0.5-0.3-0.8-0.1-0.4-0.3-0.7-0.3-0.7-0.1 0-0.2-0.1-0.2-0.2 0-0.7-3.2-4.4-4-4.7-0.4-0.1-1.2-0.6-1.6-1-0.1-0.1-0.4-0.2-0.5-0.2-0.2 0-0.5-0.2-0.8-0.4-0.3-0.2-0.7-0.3-0.8-0.3-0.2 0-0.6-0.2-0.8-0.3-0.7-0.5-7.1-0.5-7.7 0-0.3 0.1-0.6 0.3-0.9 0.3-0.3 0-1 0.3-2.1 0.9-0.1 0-0.4 0.2-0.6 0.3q-1.5 0.7-2.6 2c-0.5 0.5-1 1.1-1.1 1.2-0.2 0.2-0.3 0.4-0.3 0.4 0 0.1-0.2 0.5-0.5 0.9-0.4 0.5-0.7 1.2-0.7 1.5-0.1 0.4-0.3 0.8-0.4 1-0.1 0.2-0.2 0.9-0.3 1.5 0 0.6-0.2 1.2-0.3 1.3-0.1 0.1-0.3 1.2-0.3 2.4-0.1 1.2-0.2 2.2-0.3 2.3-0.4 0.4-4 0.8-7.3 0.8q-2.3 0.1-2.9 0.3c-0.4 0.2-0.8 0.3-1 0.3-0.7 0-2.3 1.9-2.5 3 0 0.4-0.2 0.7-0.2 0.8-0.1 0.1-0.3 0.9-0.3 1.7-0.1 0.8-0.3 1.6-0.4 1.8-0.1 0.2-0.2 0.9-0.3 1.7-0.2 1.8-1.1 3.5-1.1 2.1 0-0.2 0-0.4-0.1-0.5-0.3-0.2-1-1.7-1.1-2.2-0.1-0.3-0.3-0.6-0.4-0.7-0.1-0.2-0.3-0.4-0.3-0.7 0-0.2-0.1-0.7-0.3-1-0.2-0.4-0.3-1-0.3-1.4 0-0.4-0.1-0.9-0.2-1.2-0.2-0.4-0.5-2.3-0.9-5.8-0.1-1.1-0.1-2.1 0-3 0.1-0.8 0.3-2.2 0.4-3.1 0.1-0.9 0.3-1.9 0.4-2.2 0.1-0.3 0.2-1.1 0.3-1.8 0-0.6 0.2-1.4 0.4-1.6 0.1-0.3 0.2-0.6 0.2-0.8 0-0.1 0.2-0.5 0.4-0.8 0.2-0.3 0.3-0.6 0.3-0.8 0-0.2 1.2-2.7 1.5-3.1 0.1-0.1 0.4-0.6 0.7-1.2 0.5-1.1 1.2-2.2 2.6-3.9 0.5-0.6 0.9-1.2 0.9-1.2 0-0.2 3.8-4 4.7-4.7 1.1-0.8 3-2.1 3.2-2.1 0 0 0.2-0.1 0.2-0.2 0.1-0.2 0.3-0.3 0.5-0.4 0.3 0 0.8-0.3 1.3-0.7 0.5-0.3 1-0.6 1.1-0.6 0.2 0 0.6-0.1 1-0.3 0.4-0.2 0.8-0.3 1-0.3 0.1 0 0.4-0.2 0.5-0.3 0.1-0.1 0.5-0.3 0.9-0.3 0.3-0.1 0.8-0.3 1-0.4 0.2-0.1 0.5-0.2 0.8-0.2 0.2 0 0.7-0.2 1.2-0.4 0.5-0.2 1.2-0.3 1.5-0.3 0.4 0 0.9-0.1 1.2-0.2 0.3-0.1 0.9-0.3 1.5-0.4 1.7-0.2 8.7 0 9 0.2zm62.7 1.1c0.9 0.3 0.8-1.3 0.8 32 0.1 34.6 0.1 32-0.9 32.5-1.2 0.6-17.1 0.6-18.3 0.1-1-0.6-0.9 2.2-0.9-32.5 0-34.4-0.1-32 1-32.2 1.2-0.2 17.7-0.1 18.3 0.1zm-130.8 28.9c0 0.2 0 0.7 0 0.9 0 0.3-0.1 0.1-0.1-0.4 0-0.6 0.1-0.8 0.1-0.5zm-14.1 56.4c0.6 0 0.8 0 0.5 0.1-0.3 0-0.8 0-1.1 0-0.3-0.1-0.1-0.1 0.6-0.1z"/>
		<path id="path4" fill-rule="evenodd" class="s2" d="m90.6 40.7c-0.2 0.3-0.3 0.5-0.3 0.6 0 0.2 0.2 0 0.4-0.3 0.2-0.2 0.6-0.5 0.8-0.5 0.3-0.1 0.3-0.1-0.1-0.1-0.2 0-0.6 0.1-0.8 0.3zm19.1-0.2c0.2 0.1 0.7 0.3 0.9 0.5 0.2 0.2 0.3 0.3 0.3 0.3 0-0.3-0.9-1-1.3-0.9-0.4 0-0.4 0 0.1 0.1zm263.9 0c-0.4 0.1-0.9 0.2-1.2 0.3-0.9 0.3 0.1 0.3 1.2 0 0.7-0.2 1.8-0.3 3.4-0.3 1.6 0 2.8 0.1 3.4 0.3 1.3 0.3 1.8 0.3 0.9-0.1-0.8-0.3-6.5-0.4-7.7-0.2zm-3.7 0.9c-0.4 0.2-0.5 0.3-0.2 0.3 0.2 0 0.5-0.1 0.7-0.2 0.1-0.2 0.6-0.3 0.9-0.3 0.6-0.1 0.6-0.1-0.1-0.1-0.4 0-0.9 0.1-1.3 0.3zm12.6-0.2c0.9 0.3 2 0.7 2.3 0.9 0.1 0.2 0.4 0.3 0.7 0.3 0.5 0.1 0.5 0.6 0 0.6-0.2 0.1-0.6 0.5-1 1.2-0.4 0.6-0.7 1.3-0.8 1.4-0.5 0.9-3.1 3.6-4.2 4.5-1.3 1-1.5 1.1-1.9 1.3-0.2 0-0.3 0.1-0.3 0.2 0 0.1-0.2 0.2-0.5 0.4-0.3 0.1-0.9 0.4-1.4 0.6-0.5 0.3-1 0.6-1.1 0.6-0.1 0-0.5 0.1-0.8 0.3-0.4 0.2-0.9 0.3-1.2 0.3-0.2 0-0.8 0.2-1.3 0.3-0.4 0.1-1 0.3-1.3 0.3q-0.4 0.1 0.3 0.1c0.3 0 0.9-0.1 1.2-0.2 0.4-0.2 0.9-0.3 1.2-0.3 0.2 0 0.8-0.1 1.2-0.3 2.3-1.1 3-1.4 3.6-1.8 0.3-0.3 0.7-0.4 0.7-0.4 0.2 0 1.4-0.9 2.6-1.9 0.3-0.2 1-1 1.6-1.7 0.6-0.7 1.1-1.4 1.2-1.5 0.3-0.2 0.8-1 1.1-1.6 0.5-1 0.7-1.3 1.1-1.4 0.8-0.2 0.9-1.2 0.1-1.2-0.2 0-0.5-0.1-0.6-0.2-0.1-0.2-0.5-0.3-0.8-0.4-0.3-0.1-0.7-0.2-0.9-0.3-0.1-0.2-0.5-0.3-0.8-0.3l-0.5 0.1zm-292.6 0.8c-0.1 0.2-0.2 13-0.1 40.6 0 44.1-0.1 40.9 1 41.9l0.5 0.4h9.2 9.1l0.7-0.4c0.3-0.3 0.6-0.6 0.6-0.7q0-0.2-0.1 0c-0.7 0.9-0.7 0.9-10.3 0.9h-9l-0.5-0.4c-1-0.8-0.9 1-0.9-42.4 0-22.1 0-40.2 0-40.2 0 0-0.1 0.1-0.2 0.3zm21.1 40.5c0 32.8 0.1 40.7 0.2 40.4 0.2-0.3 0.2-8.7 0.2-40.3 0-31.5 0-40-0.2-40.4-0.1-0.4-0.2 7.5-0.2 40.3zm257.3-40.5c-0.4 0.2-0.8 0.5-1 0.5-0.1 0.1-0.4 0.3-0.7 0.4-0.2 0.1-0.5 0.2-0.5 0.3 0 0.1 0 0.2-0.2 0.2-0.8 0-5.2 3.9-5.9 5.3-0.1 0.2-0.3 0.4-0.3 0.5-0.2 0.1-0.8 1-1.2 1.9-0.5 0.9-0.5 2.1 0 2.2 0.2 0 0.5 0.1 0.7 0.3 0.1 0.1 0.6 0.3 1 0.3 0.4 0.1 1 0.2 1.4 0.3 0.3 0.2 0.9 0.3 1.3 0.3 0.5-0.1 0.5-0.1 0.1-0.1-0.3-0.1-0.9-0.2-1.3-0.3-0.4-0.2-0.9-0.3-1.1-0.3-1 0-2.3-0.8-2.3-1.4 0-1.2 2.9-5.4 5-7.1 1.3-1.1 2.2-1.6 4.3-2.7 0.7-0.3 1.3-0.7 1.4-0.8 0.5-0.2 0-0.1-0.7 0.2zm-3.1 12.6c0.7 0 1.9 0 2.5 0 0.7 0 0.1 0-1.3 0-1.4 0-2 0-1.2 0zm-320.3 1.7c-1.1 0.2-0.4 0.3 2.3 0.3q2.9 0 2.7-0.1c-0.2-0.2-4.2-0.3-5-0.2zm-4.8 0.7c-0.6 0.2-0.8 0.3-0.5 0.4 0.2 0 0.5-0.1 0.8-0.2 0.2-0.1 1-0.3 1.7-0.3l1.4-0.1-1.3-0.1c-0.8 0-1.6 0.1-2.1 0.3zm12.2-0.1c0.7 0 1.5 0.2 1.8 0.3 0.7 0.3 1.3 0.2 0.6-0.1-0.4-0.1-1.2-0.3-2.1-0.3l-1.6-0.1zm-14.9 0.8c-0.2 0.1-0.5 0.3-0.7 0.3-0.3 0.1-0.3 0.1 0.1 0.1 0.2 0 0.5-0.1 0.7-0.2 0.2-0.1 0.5-0.3 0.7-0.3 0.3-0.1 0.3-0.1-0.1-0.1-0.2 0-0.6 0.1-0.7 0.2zm19.3 0.1c0.3 0.2 0.8 0.3 1 0.3 0.3 0 0.3 0 0-0.1-0.2 0-0.5-0.2-0.7-0.3-0.2-0.1-0.5-0.2-0.7-0.2q-0.3 0 0.4 0.3zm171.2-0.1c-0.4 0.1-0.9 0.2-1.3 0.3-0.7 0.1-0.7 0.1-0.1 0.1 0.3 0 1-0.1 1.7-0.2 0.6-0.1 1.3-0.3 1.5-0.3 0.3-0.1 0.1-0.1-0.4-0.1-0.4 0-1.1 0.1-1.4 0.2zm7.5-0.1c0.4 0.1 1 0.3 1.2 0.4 0.3 0.1 0.8 0.1 1.2 0.1h0.8l-0.8-0.1c-0.4-0.1-1-0.2-1.3-0.3-0.2-0.1-0.8-0.2-1.2-0.2h-0.7zm73.8 0.5c0.5 0 1.3 0 1.8 0 0.5-0.1 0.1-0.1-0.9-0.1-1 0-1.4 0-0.9 0.1zm-273.6 0.3c-0.3 0.3 0 0.3 0.4 0 0.3-0.2 0.3-0.3 0.1-0.3-0.2 0-0.4 0.1-0.5 0.3zm22.8 0c0.5 0.3 0.7 0.3 0.4 0-0.1-0.2-0.3-0.3-0.4-0.3-0.3 0-0.2 0.1 0 0.3zm166.3 0c-0.2 0.2-0.3 0.2 0 0.2 0.1 0 0.3 0 0.4-0.1 0.1-0.1 0.3-0.2 0.5-0.3q0.4-0.1-0.1-0.1c-0.2 0-0.6 0.1-0.8 0.3zm14.7 0.1c0.4 0.1 0.9 0.3 1.1 0.3 0.2 0 0.5 0.1 0.7 0.2 0.1 0.2 0.4 0.3 0.5 0.3 0.2 0 0.1-0.1-0.2-0.3-0.3-0.2-0.7-0.4-1-0.4-0.2 0-0.5-0.1-0.7-0.2-0.2-0.2-0.5-0.3-0.7-0.3q-0.4 0 0.3 0.4zm65.1-0.3c-0.2 0.1-0.4 0.2-0.6 0.3-0.2 0-0.6 0.1-0.9 0.2-0.4 0-0.4 0 0.2 0.1 0.3 0 0.8-0.1 1-0.2 0.2-0.1 1-0.3 1.8-0.3l1.5-0.1h-1.4c-0.7-0.1-1.5 0-1.6 0zm9.5 0.1c0.6 0 1.4 0.2 1.8 0.3 0.3 0.1 0.8 0.2 1.2 0.2 0.5-0.1 0.5-0.1 0-0.1-0.2-0.1-0.8-0.2-1.2-0.3-0.4-0.2-1.3-0.3-1.9-0.3l-1.1 0.1zm-279.9 0.6c-0.3 0.2-0.4 0.4-0.3 0.4 0.2 0 0.3-0.1 0.3-0.2 0.1-0.1 0.4-0.2 0.7-0.3 0.5-0.2 0.5-0.2 0.1-0.2-0.3 0-0.6 0.2-0.8 0.3zm25.5-0.1c0.3 0.1 0.6 0.2 0.7 0.3 0.1 0.1 0.2 0.2 0.3 0.2 0.1 0 0-0.2-0.2-0.4-0.2-0.1-0.6-0.3-0.9-0.3-0.4 0-0.4 0 0.1 0.2zm163.3-0.1c-0.4 0.2-0.7 0.6-0.4 0.6 0.1 0 0.3-0.1 0.4-0.3 0.1-0.1 0.5-0.2 0.8-0.3h0.5l-0.5-0.1c-0.3 0-0.6 0.1-0.8 0.1zm-97.7 0.3c-0.3 0.2-0.6 0.3-0.8 0.3-0.1 0-0.3 0.2-0.4 0.5-0.1 0.2-0.3 0.6-0.5 0.9-0.3 0.5-0.3 36.7 0 38.4 0.1 0.5 0.2 1.5 0.3 2.2l0.1 1.3v-1.4c-0.3-5.5-0.3-40 0-40.8 0.5-1.3 0.4-1.3 10.7-1.2 7 0 8.8 0 8.5-0.2-0.6-0.3-17.4-0.3-17.9 0zm45.1 0c-0.2 0.2 1.7 0.2 9 0.2 7.4 0 9.2 0 8.9-0.2-0.5-0.3-17.5-0.3-17.9 0zm80.5 0c-0.3 0.2 1.1 0.2 6.8 0.2 5.8 0 7.2 0 6.9-0.2-0.2-0.2-1.8-0.2-6.9-0.2-5 0-6.6 0-6.8 0.2zm50.3 0c-0.1 0.1-0.6 0.3-1 0.4-0.5 0-0.9 0.2-1.1 0.3-0.2 0.2-0.5 0.3-0.7 0.3-0.2 0-0.6 0.1-1 0.3-0.3 0.2-0.7 0.4-0.9 0.4-0.1 0-0.4 0.1-0.6 0.2-0.1 0.1-0.5 0.3-0.8 0.3-0.2 0.1-0.7 0.3-0.9 0.5-1.1 0.7-2.1 1.4-2.3 1.4 0 0-0.5 0.3-1 0.6-0.4 0.4-0.9 0.7-1 0.7-0.3 0-5.3 4.8-6.2 6-0.2 0.3-0.6 0.8-0.8 1.1-0.8 0.9-2.1 3-2.4 3.7-0.3 0.6-0.3 0.7-0.9 1.6-0.2 0.5-0.5 1-0.5 1.1 0 0.1-0.1 0.4-0.3 0.7-0.2 0.2-0.4 0.6-0.4 0.8 0 0.2-0.1 0.5-0.2 0.6-0.1 0.1-0.3 0.4-0.4 0.8 0 0.3-0.2 0.7-0.3 0.8-0.2 0.2-0.3 0.6-0.2 0.9v0.6l0.1-0.6c0.1-0.4 0.2-0.8 0.3-0.9 0.1-0.1 0.2-0.3 0.2-0.4 0-0.2 0.2-0.6 0.4-0.9 0.1-0.4 0.3-0.8 0.3-1 0-0.1 0.1-0.4 0.3-0.7 0.1-0.2 0.7-1.2 1.2-2.3 0.6-1.1 1.2-2.1 1.3-2.3 0.2-0.2 0.3-0.4 0.3-0.5 0-0.9 6.6-8 8.4-9 0.3-0.1 1.1-0.6 1.7-1.1 0.7-0.5 1.3-0.9 1.4-0.9 0 0 0.5-0.2 1-0.6 0.5-0.3 1-0.6 1.1-0.6 0.2 0 0.6-0.1 1-0.3 0.4-0.2 0.8-0.3 0.9-0.3 0.2 0 0.4-0.1 0.5-0.2 0.2-0.2 2.6-1 2.9-1 0.2 0 0.5-0.1 0.8-0.3 0.3-0.1 0.7-0.3 0.9-0.3q0.3-0.1-0.2-0.1c-0.3 0-0.7 0.1-0.9 0.2zm16.7-0.1c0.2 0 0.5 0.2 0.8 0.3 0.3 0.2 0.8 0.3 1 0.3 0.2 0 0.7 0.1 1.1 0.3 0.3 0.2 0.8 0.3 1 0.3 0.2 0 0.4 0.2 0.5 0.3 0.2 0.1 0.5 0.3 0.8 0.3 0.6 0.1 0.9 0.3 2.5 1.1 1.6 0.8 2 1 2.7 1.5 0.3 0.3 1 0.7 1.4 0.9 0.4 0.2 1.2 0.8 1.7 1.3 0.5 0.5 1.4 1.3 2 1.7 0.5 0.5 1.4 1.5 2 2.2 0.6 0.7 1.4 1.6 1.8 2.1 0.4 0.5 0.8 1.1 1 1.4 0.3 0.5 0.4 0.8 1.2 1.9 0.7 1.1 1.3 2.2 1.3 2.5 0 0.1 0.1 0.3 0.2 0.4 0.1 0.2 0.3 0.5 0.4 0.8 0 0.3 0.2 0.8 0.3 1 0.1 0.3 0.3 0.7 0.3 0.8q0.1 0.2 0.1-0.1c0-0.2-0.1-0.6-0.2-0.9-0.2-0.2-0.3-0.6-0.4-0.9 0-0.2-0.2-0.6-0.3-0.7-0.2-0.1-0.3-0.4-0.3-0.6 0-0.2-0.1-0.5-0.2-0.6-0.2-0.2-0.4-0.5-0.5-0.8-0.1-0.3-0.2-0.5-0.3-0.5-0.1 0-0.2-0.1-0.2-0.2 0-0.1-0.3-0.7-0.7-1.3-0.3-0.5-0.6-1.1-0.6-1.2 0-0.1-0.3-0.4-0.6-0.8-0.3-0.3-1.1-1.2-1.7-1.9-1.7-2.1-4.9-5-6.2-5.7-0.5-0.3-1-0.6-1.2-0.8-0.2-0.1-0.5-0.4-0.6-0.5-0.1-0.1-0.4-0.3-0.6-0.3-0.2-0.1-0.5-0.3-0.6-0.4-0.1-0.1-0.3-0.2-0.5-0.2-0.2 0-0.4-0.2-0.5-0.3-0.1-0.1-0.5-0.3-0.8-0.4-0.3 0-0.7-0.2-0.8-0.3-0.1-0.1-0.3-0.2-0.5-0.2-0.2 0-0.7-0.2-1-0.4-0.4-0.2-0.8-0.3-0.9-0.3-0.2 0-0.6-0.2-0.9-0.4-0.4-0.2-0.9-0.3-1.2-0.3-0.3 0-0.7-0.1-0.9-0.3-0.1-0.1-0.5-0.2-0.7-0.2q-0.4 0-0.2 0.1zm41.5 0.3c-1.8 0.5-1.7-2.2-1.7 32.8 0 27.2 0.1 30.2 0.3 31 0.3 1.1 0.9 1.8 1.6 1.7 0.4 0 0.4 0 0.1-0.1-0.9-0.1-1.4-0.9-1.5-2.1-0.2-2.1 0-61.9 0.2-62.4 0.3-0.8 0.8-0.8 10.2-0.8 9.5 0 9.8 0 10.1 0.9 0.2 0.7 0.3 60.7 0.1 62.4-0.2 1.3-0.6 1.9-1.5 2q-0.4 0.1 0.1 0.1c0.7 0.1 1.3-0.6 1.5-1.6 0.2-0.7 0.2-9.3 0.2-31.3 0-34.5 0.1-32.1-1.3-32.6-1-0.3-17.3-0.3-18.4 0zm-326.5 0.3c-0.1 0.1-0.3 0.3-0.5 0.3q-0.3 0.2 0.1 0.2c0.1 0 0.3-0.1 0.4-0.2 0-0.1 0.3-0.3 0.5-0.3q0.4-0.2 0-0.2c-0.1 0-0.3 0.1-0.5 0.2zm28.1-0.1c0.3 0.2 2.1 1 2 0.9 0-0.1-0.3-0.3-0.6-0.4-0.2-0.1-0.6-0.2-0.7-0.4-0.3-0.2-0.9-0.3-0.7-0.1zm83 0.1c0.9 0.3 0.9 0.4 0.9 18.4 0.1 9.1 0.1 17 0.2 17.5 0 0.6 0.1-6.9 0.1-16.7 0-16.5 0-17.8-0.3-18.3-0.2-0.3-0.3-0.6-0.3-0.7 0-0.2-0.4-0.4-0.8-0.4-0.1 0 0 0.1 0.2 0.2zm25 0.1c-0.1 0.2-0.1 0.5-0.1 0.7 0 0.4 0 0.4 0.1-0.1 0.1-0.3 0.3-0.6 0.5-0.7 0.5-0.2 0.5-0.2 0.1-0.2-0.2 0-0.5 0.1-0.6 0.3zm20.1-0.1c0.4 0.3 0.5 0.3 0.4 0-0.1-0.1-0.3-0.2-0.4-0.2-0.3 0-0.3 0 0 0.2zm31.9 0c-0.2 0.1-0.5 0.3-0.8 0.4-0.3 0-0.6 0.2-0.7 0.3-0.2 0.1-0.6 0.3-0.9 0.4-0.4 0-0.7 0.2-0.9 0.3-0.2 0.3 0.1 0.3 0.5 0 0.2-0.1 0.5-0.2 0.6-0.2 0.2 0 0.6-0.2 1-0.4 0.7-0.3 1.4-0.7 2-0.9 0.3-0.1 0.2-0.1-0.2-0.1-0.2 0-0.5 0.1-0.6 0.2zm21.4-0.1c0.2 0.1 0.5 0.2 0.6 0.3 0.2 0.1 0.7 0.4 1.2 0.6 0.4 0.2 1 0.5 1.3 0.6 0.4 0.2 0.5 0.2 0.4 0.1 0-0.2-0.3-0.3-0.6-0.4-0.4-0.1-0.7-0.3-0.9-0.4-0.1-0.1-0.3-0.2-0.4-0.2-0.1 0-0.4-0.2-0.7-0.4-0.2-0.2-0.6-0.3-0.8-0.3-0.3 0-0.4 0-0.1 0.1zm7 0.3c-0.2 0.2-0.5 0.4-0.5 0.5-0.1 0.1-0.2 0.3-0.4 0.4-0.2 0.2-0.3 0.4-0.3 0.5 0 0.1 0.3-0.2 0.8-0.7 0.4-0.4 0.9-0.9 1.1-0.9q0.4-0.2 0.1-0.2c-0.1 0-0.5 0.2-0.8 0.4zm16.1-0.3c0.2 0.1 0.5 0.5 0.7 1l0.4 1v26.9c0 15-0.1 27.6-0.1 28.4-0.3 2.6-0.4 4-0.2 3 0.4-2.2 0.5-5.4 0.5-31.2v-27.4l-0.4-0.8c-0.4-0.8-0.6-1-1-1q-0.2 0 0.1 0.1zm-233.9 0.8c-0.1 0.2-0.4 0.3-0.5 0.3-0.4 0-1.2 0.7-0.9 0.7 0.1 0 0.2-0.1 0.2-0.2 0-0.1 0.3-0.2 0.6-0.3 0.6-0.2 1.3-0.7 1-0.7-0.1 0-0.3 0.1-0.4 0.2zm157.9-0.1c0 0.1 0.2 0.3 0.3 0.6 0.2 0.3 0.2 4.8 0.2 31.1 0.1 33.9 0.1 31.3-1 32.5l-0.4 0.5h-7.1c-8.2 0-8.6-0.1-9.3-1.9q-0.1-0.3-0.1 0c0 0.4 1.2 1.6 1.8 1.9 0.3 0.1 3.6 0.1 7.6 0.1h7.1l0.5-0.4c0.2-0.2 0.6-0.6 0.8-1l0.3-0.7v-30.9c0-27.4 0-31-0.2-31.4-0.3-0.5-0.5-0.7-0.5-0.4zm-126 0.5c0.2 0.1 0.5 0.2 0.7 0.4 0.2 0.2 0.5 0.3 0.6 0.3 0.1 0 0.3 0.2 0.5 0.3 0.3 0.3 0.4 0.3 0.2 0-0.2-0.3-0.4-0.4-0.5-0.4-0.2 0-0.5-0.2-0.7-0.4-0.3-0.2-0.6-0.3-0.8-0.3-0.4 0-0.4 0 0 0.1zm105.1 0.4c0 0.1-0.1 8.2-0.1 18-0.1 14.5 0 17.5 0.1 16.6 0.3-1.1 0.3-35.1 0-34.6zm-139.5 0.5c-0.2 0.2-0.2 0.4-0.1 0.4 0.1 0 0.2-0.1 0.2-0.2 0-0.1 0.2-0.3 0.4-0.4q0.4-0.1 0.1-0.1c-0.2 0-0.4 0.1-0.6 0.3zm187.4-0.1c-0.4 0.4-0.4 0.6 0 0.2 0.2-0.1 0.5-0.3 0.6-0.3 0.4-0.1 0.4-0.1 0-0.1-0.2 0-0.5 0.1-0.6 0.2zm30.3 0.1c0.5 0.4 0.5 0.4 0.9 0 0.1-0.2 0.2-0.3 0.2-0.3-0.1 0-0.3 0.1-0.4 0.2-0.2 0.2-0.2 0.2-0.5 0-0.1-0.1-0.3-0.2-0.5-0.2q-0.3 0 0.3 0.3zm-218.8 0.7c-1.2 1-1.5 1.3-1.5 1.4 0 0.1 0.2-0.1 0.4-0.3 0.3-0.3 0.8-0.6 1.1-0.9 0.4-0.2 0.7-0.4 0.7-0.5 0-0.1-0.3 0-0.7 0.3zm38.2 0c0.2 0.2 0.5 0.3 0.5 0.3 0.1 0 0-0.1-0.2-0.3-0.1-0.2-0.4-0.3-0.5-0.3q-0.3 0 0.2 0.3zm149.3-0.1c-0.1 0.1-0.4 0.3-0.6 0.3-0.2 0.1-0.4 0.2-0.4 0.3 0 0.2 1.3-0.4 1.4-0.7 0.2-0.2-0.1-0.2-0.4 0.1zm-147.6 1.4c0.6 0.5 1.1 0.9 1.2 0.9 0.4 0 5.2 5.1 5.2 5.4 0 0.1 0.3 0.5 0.6 0.8 0.3 0.4 0.7 1 1 1.4 0.8 1.3 1.4 2.2 1.5 2.5 0.1 0.2 0.2 0.2 0.2 0 0-0.2-0.2-0.5-0.4-0.7-0.2-0.2-0.3-0.4-0.3-0.5 0-0.2-1.5-2.5-1.7-2.5-0.1-0.1-0.2-0.2-0.2-0.3 0-0.2-0.1-0.3-0.2-0.4-0.2 0-0.3-0.2-0.4-0.4-0.1-0.8-5.5-6-6-6-0.1 0-0.4-0.2-0.7-0.6-0.3-0.3-0.6-0.6-0.7-0.6 0 0.1 0.3 0.5 0.9 1zm145.6-0.1c-0.2 0.2-0.4 0.3-0.5 0.3-0.1 0-0.3 0.2-0.4 0.3-0.4 0.5-1.2 1.1-1.3 1.1-0.1 0-0.5 0.4-1 0.9-0.5 0.5-1.3 1.3-1.8 1.9-0.5 0.5-1.1 1.2-1.3 1.4-0.2 0.2-0.5 0.6-0.6 0.8-0.2 0.2-0.3 0.3-0.3 0.4 0.1 0 0.4-0.3 0.8-0.7 0.3-0.5 1.2-1.4 1.9-2.1 0.7-0.7 1.2-1.3 1.2-1.4 0-0.1 3.3-2.7 3.9-3 0.3-0.2 0.3-0.2 0-0.2-0.2 0-0.4 0.1-0.6 0.3zm-188 0.7c-0.1 0.2-0.2 0.3-0.2 0.3 0.1 0 0.4-0.1 0.6-0.3q0.4-0.4 0.2-0.4c-0.2 0-0.4 0.2-0.6 0.4zm-1.7 1.5c-0.6 0.6-1.1 1.1-1.1 1.2 0 0.1-0.1 0.2-0.3 0.2-0.1 0-0.2 0.1-0.2 0.2 0 0.1-0.3 0.4-0.6 0.6-0.3 0.3-0.6 0.6-0.7 0.8-0.1 0.1-0.2 0.3-0.3 0.3-0.1 0-0.2 0.2-0.4 0.6-0.1 0.3-0.3 0.6-0.4 0.6-0.1 0-0.2 0-0.2 0.1 0 0.1-0.3 0.6-0.7 1.1-0.3 0.5-0.6 1-0.6 1 0 0.2 0.5-0.3 0.7-0.7 0.1-0.2 0.4-0.7 0.8-1.1 0.3-0.4 0.5-0.9 0.5-0.9 0-0.1 0.7-0.9 1.6-1.9 3.1-3.1 3.2-3.3 3.1-3.3-0.1 0-0.6 0.5-1.2 1.2zm182.1 5.4c-0.2 0.2-0.3 0.4-0.3 0.6 0 0.2 0 0.2 0.2 0 0.5-0.8 0.6-1.1 0.1-0.6zm-1 1.6c-0.3 0.4-0.5 0.8-0.4 0.8 0 0.1 0.2-0.1 0.4-0.5 0.2-0.3 0.4-0.6 0.5-0.7 0.1-0.2 0.2-0.3 0.1-0.3-0.1 0-0.4 0.4-0.6 0.7zm-187.1 0.4c-0.1 0.1-0.2 0.4-0.2 0.5 0 0.2-0.1 0.3-0.3 0.4-0.1 0-0.2 0.2-0.2 0.3 0 0.1 0.1 0.1 0.3-0.1 0.2-0.2 0.3-0.4 0.3-0.6 0-0.1 0.2-0.4 0.3-0.6 0.2-0.1 0.2-0.3 0.1-0.3-0.1 0-0.3 0.2-0.3 0.4zm186.2 1c-0.1 0.1-0.3 0.3-0.3 0.4 0 0.1-0.1 0.3-0.3 0.6-0.2 0.2-0.4 0.6-0.4 0.8 0 0.2-0.1 0.5-0.2 0.6-0.2 0.1-0.3 0.4-0.3 0.6 0 0.2 0.1 0.2 0.4-0.3 0.2-0.4 0.3-0.8 0.3-0.9 0-0.2 0.3-0.7 0.6-1.1 0.6-0.9 0.7-1.3 0.2-0.7zm-187.3 1c-0.2 0.4-0.3 0.8-0.3 1 0.1 0.2 0.1 0.2 0.1-0.1 0-0.2 0.2-0.6 0.3-0.7 0.2-0.2 0.3-0.4 0.2-0.5 0-0.1-0.2 0-0.3 0.3zm60.9-0.1c0 0.1 0.2 0.4 0.3 0.7 0.7 1.6 0.9 1.9 0.9 1.5 0-0.2-0.1-0.4-0.3-0.5-0.1-0.1-0.3-0.5-0.3-0.8-0.1-0.3-0.2-0.7-0.4-0.8-0.2-0.1-0.2-0.2-0.2-0.1zm-61.5 1.6c-0.1 0-0.3 0.3-0.3 0.7-0.1 0.3-0.2 0.6-0.4 0.7-0.1 0.1-0.2 0.4-0.2 0.5q0 0.3 0.3-0.2c0.2-0.3 0.4-0.6 0.4-0.8 0-0.1 0.1-0.4 0.2-0.5 0.4-0.4 0.3-0.5 0-0.4zm28.7 0.6l-1.2 0.3 1.1-0.1c0.5 0 1.1-0.2 1.3-0.2 0.4-0.2 2.3-0.2 2.7-0.1 0.1 0.1 0.7 0.2 1.2 0.3l0.9 0.1-0.7-0.3c-1.3-0.4-3.8-0.4-5.3 0zm186.2 0q-0.9 0.3-0.5 0.3c0.2 0 0.7-0.1 1-0.2 0.9-0.4 4.4-0.4 5 0 0.3 0.1 0.7 0.2 0.9 0.2 0.4 0 0.3-0.1-0.3-0.3-1-0.4-5-0.5-6.1 0zm-188.4 0.5c-0.2 0.2-0.6 0.3-1 0.4-0.4 0-0.8 0.2-0.9 0.3-0.4 0.4-0.1 0.4 0.4 0.1 0.2-0.2 0.6-0.3 1-0.4 0.6-0.1 1.6-0.6 1.1-0.6-0.1 0-0.4 0.1-0.6 0.2zm8.6-0.1c0 0.2 1.1 0.6 1.5 0.6 0.5 0 0.5 0-0.1-0.2-0.3-0.1-0.6-0.2-0.7-0.3-0.2-0.2-0.7-0.3-0.7-0.1zm150.9 0.5c-0.2 0.3-0.3 0.6-0.2 0.7q0.1 0.1 0.1-0.1c0-0.1 0.1-0.4 0.3-0.5 0.1-0.2 0.2-0.4 0.2-0.5 0-0.1-0.2 0-0.4 0.4zm27-0.3c-0.2 0.1-0.5 0.2-0.6 0.2-1.1 0-4.9 3-5.6 4.4-0.3 0.7-0.6 1.3-0.9 1.5-0.1 0.1-0.1 0.3-0.1 0.4 0 0.4 0.6-0.4 0.6-0.8 0-0.2 0.1-0.4 0.3-0.4 0.1-0.1 0.2-0.3 0.3-0.5 0.3-1.3 3.9-4.1 5.7-4.5 0.3 0 0.6-0.2 0.7-0.3 0.3-0.4 0-0.4-0.4 0zm9.5 0.1c0.2 0.1 0.5 0.3 0.7 0.3 0.2 0 0.6 0.1 0.8 0.3 0.2 0.2 0.5 0.4 0.6 0.4 0.2 0 0.3 0.1 0.4 0.2 0 0.2 0.1 0.3 0.2 0.3 0.2 0 2.4 2.1 2.5 2.4 0 0.1 0.1 0.2 0.2 0.1 0.4-0.3-3.8-3.9-4.7-3.9-0.2 0-0.4-0.1-0.5-0.2-0.1-0.2-0.3-0.3-0.4-0.3-0.1 0 0 0.2 0.2 0.4zm-159.8 0c0 0.1 0.1 0.3 0.2 0.5 0.2 0.1 0.3 0.3 0.3 0.5q0 0.5 0.1 0.1c0-0.2-0.1-0.6-0.3-0.9-0.2-0.3-0.3-0.4-0.3-0.2zm-25.3 0.6c0.1 0.1 0.3 0.2 0.4 0.2 0.1 0 0.3 0.1 0.5 0.2 0.1 0.2 0.4 0.4 0.7 0.5 1 0.6 3.5 3.2 3.7 4 0.1 0.2 0.3 0.5 0.4 0.5 0.3 0.1 0.3 0.1 0.1-0.2-0.2-0.2-0.4-0.5-0.4-0.7-0.2-0.4-3.2-3.6-3.4-3.6-0.1 0-0.6-0.3-1.1-0.6-1-0.7-1.3-0.8-0.9-0.3zm255.4 0.2c0.6 0 1.7 0 2.4 0 0.7-0.1 0.2-0.1-1.2-0.1-1.3 0-1.8 0-1.2 0.1zm-269.3 0.3c-0.2 0.2-0.3 0.4-0.2 0.4 0.1 0 0.4-0.2 0.6-0.4 0.2-0.1 0.3-0.3 0.2-0.3-0.1 0-0.4 0.2-0.6 0.3zm266.9 0c-0.3 0.1-0.6 0.2-0.8 0.2-0.4 0-1.8 0.6-2.9 1.3-0.4 0.2-0.9 0.5-1 0.6-0.6 0.2-2.6 2.4-3.2 3.5-1 1.6-1 1.7-1 2.1 0 0.1-0.1 0.5-0.3 0.7-0.1 0.3-0.2 0.7-0.2 1.1q0 0.6 0.1 0.1c0-0.2 0.2-0.6 0.3-0.9 0.1-0.3 0.2-0.8 0.2-1 0-0.2 0.4-0.9 0.7-1.4 0.4-0.6 0.7-1.1 0.7-1.1 0-0.1 0.2-0.4 0.5-0.7 1.1-1.3 2.1-2.2 3-2.6 0.5-0.3 1-0.6 1-0.7 0-0.1 0.1-0.1 0.2-0.1 0.1 0 0.5-0.2 0.8-0.4 0.4-0.2 0.9-0.3 1.1-0.3 0.7 0 2.2-0.7 1.6-0.7-0.2 0-0.6 0.1-0.8 0.3zm6.5-0.2c0.1 0.1 0.5 0.2 0.8 0.3 0.3 0.2 0.6 0.3 0.8 0.3 0.2 0 0.5 0.1 0.6 0.2 0.1 0.2 0.4 0.3 0.8 0.4 0.3 0.1 0.5 0.2 0.5 0.3 0 0 0.3 0.2 0.6 0.3 0.4 0.1 0.6 0.3 0.6 0.3 0 0.1 0.2 0.3 0.3 0.3 0.9 0.3 2.2 1.6 3.3 3.2 0.4 0.7 0.9 1.4 1 1.7 0.2 0.2 0.4 0.6 0.5 0.9 0 0.3 0.2 0.6 0.3 0.8 0.1 0.1 0.3 0.6 0.4 1 0 0.4 0.1 0.8 0.2 0.9 0.1 0.1 0.2 0.4 0.2 0.7 0.1 0.5 0.1 0.5 0.1-0.1 0-0.3-0.1-0.8-0.2-1-0.1-0.2-0.2-0.6-0.2-0.9 0-0.2-0.1-0.5-0.3-0.7-0.1-0.2-0.3-0.6-0.4-0.9-0.9-2.8-3.9-5.7-7.4-7.2-0.4-0.2-1-0.5-1.4-0.6-0.3-0.2-0.8-0.3-1-0.3q-0.4 0-0.1 0.1zm-298.2 0.9c-0.2 0.3-0.3 0.7-0.3 0.9 0 0.4 0 0.3 0.2-0.1 0.1-0.2 0.2-0.6 0.3-0.7 0.1-0.1 0.2-0.3 0.2-0.5-0.1-0.1-0.2 0-0.4 0.4zm186.6-0.1c-0.1 0.3-0.2 0.7-0.2 0.9 0.1 0.3 0.1 0.3 0.1-0.1 0-0.2 0.2-0.5 0.3-0.7 0.2-0.2 0.3-0.4 0.2-0.5 0-0.1-0.2 0.1-0.4 0.4zm-163.5 0.9c-1.5 1.5-2.2 2.3-2.2 2.4 0 0.1-0.2 0.4-0.3 0.6-0.2 0.2-0.4 0.5-0.4 0.7 0 0.1-0.1 0.4-0.2 0.5-0.2 0.1-0.3 0.3-0.3 0.4 0 0.3 0.7-0.6 0.7-0.9 0-0.2 0.1-0.4 0.2-0.5 0.2 0 0.3-0.3 0.4-0.5 0-0.2 0.3-0.7 0.7-1 0.3-0.3 0.6-0.6 0.6-0.7 0-0.1 0.1-0.2 0.2-0.2 0.2 0 0.3-0.1 0.3-0.2 0-0.2 0.8-1 1-1 0.1 0 0.2-0.2 0.3-0.4 0.3-0.5 0.1-0.4-1 0.8zm41.6-0.8c0 0 0.1 0.3 0.2 0.5 0.1 0.3 0.3 0.7 0.3 0.9 0 0.2 0.1 0.6 0.2 0.9 0.1 0.3 0.3 0.7 0.3 0.8q0.1 0.2 0.1-0.2c0-0.2-0.1-0.5-0.2-0.7-0.1-0.2-0.3-0.7-0.3-1.1-0.1-0.6-0.7-1.7-0.6-1.1zm262.5 1.2c0 0.1 0.1 0.4 0.3 0.7 0.2 0.4 0.3 0.8 0.7 2.6 0.1 0.4 0.3 1 0.4 1.4 0.1 0.4 0.2 1.1 0.3 1.5l0.2 0.8v-0.8c0-0.4-0.1-1-0.2-1.2-0.2-0.3-0.3-0.9-0.4-1.3 0-0.5-0.2-1.1-0.3-1.4-0.2-0.3-0.3-0.8-0.3-1 0-0.3-0.2-0.7-0.3-1-0.2-0.3-0.4-0.4-0.4-0.3zm-141.1 0.2c-0.2 0.1-0.2 0.4-0.2 0.5q-0.1 0.3 0.2-0.1c0.3-0.5 0.3-0.7 0-0.4zm-186.8 0.7c-0.2 0.4-0.3 1-0.3 1.5l0.1 1 0.1-1c0-0.5 0.2-1.1 0.3-1.3 0.1-0.2 0.2-0.5 0.2-0.6-0.1-0.1-0.2 0.1-0.4 0.4zm186.4 0.5c0 0.2-0.1 0.5-0.3 0.8-0.1 0.3-0.2 0.7-0.2 0.9 0 0.4 0 0.3 0.2-0.3 0.4-0.7 0.5-1.7 0.4-1.7-0.1 0-0.1 0.1-0.1 0.3zm43.8 0c-0.1 0.2 0.1 0.5 0.3 0.7 0.2 0.2 0.3 0.3 0.3 0.2 0-0.1-0.1-0.3-0.2-0.3-0.1-0.1-0.2-0.3-0.3-0.5q-0.1-0.4-0.1-0.1zm-163.6 1.7c0 0.5 0 1.2 0.1 1.7 0.1 0.5 0.3 2 0.4 3.2l0.1 2.2v-2.2c0-1.2-0.1-2.6-0.2-2.9 0-0.4-0.2-1.2-0.3-1.7-0.1-1.1-0.1-1.1-0.1-0.3zm196.1 0.5c-0.1 0.5-0.3 1.3-0.3 1.7 0 0.5-0.1 1.2-0.2 1.6-0.1 0.5-0.3 1.3-0.2 1.8v1l0.1-0.9c0.1-0.4 0.2-1.5 0.4-2.4 0.1-0.8 0.3-1.9 0.4-2.5 0.4-1.3 0.2-1.6-0.2-0.3zm-217.3-0.1c0 0.1 0.1 0.4 0.2 0.5 0.1 0.1 0.3 0.4 0.3 0.6q0.1 0.4 0.1 0c0-0.2-0.1-0.5-0.3-0.8q-0.3-0.6-0.3-0.3zm-46 0.5c-0.1 0.4-0.2 1.1-0.2 1.5q0.1 0.8 0.1 0.3c0-0.3 0.2-0.8 0.3-1.2 0.1-0.3 0.1-0.7 0.1-0.9q-0.1-0.4-0.3 0.3zm232-0.3c-0.1 0.4 0.2 1.1 0.5 1.1q0.2 0-0.1-0.4c-0.1-0.2-0.3-0.5-0.3-0.7q-0.1-0.4-0.1 0zm-24.1 0.8c-0.1 0.3-0.2 0.8-0.2 0.9q0.1 0.4 0.1-0.1c0-0.2 0.2-0.5 0.3-0.7 0.2-0.1 0.3-0.4 0.2-0.5 0-0.2-0.2 0-0.4 0.4zm-21.8 0.2c-0.3 0.7-0.4 9 0 9.7 0.1 0.2 0.2 0.5 0.3 0.7q0 0.2 0.1-0.1c0-0.2-0.1-0.7-0.3-1.1-0.4-1.1-0.4-7.2 0-8.5 0.3-1.1 0.3-1.5-0.1-0.7zm-165.5 0.7c-0.2 0.6-0.3 1.3-0.2 1.6 0 0.6 0 0.6 0.1-0.1 0-0.3 0.1-0.9 0.3-1.2 0.1-0.3 0.2-0.7 0.2-0.9q-0.1-0.3-0.4 0.6zm26-0.1c0 0.1 0.2 0.5 0.3 0.6 0.3 0.5 0.3 0.1 0-0.5-0.2-0.4-0.3-0.4-0.3-0.1zm186.1 2.8c0 2.5 0 2.7 0.1 1.5 0.1-0.9 0.1-1.9 0-2.9-0.1-1.4-0.1-1.3-0.1 1.4zm-25.3-1.4c-0.1 0.6-0.1 2.6 0.1 3.1 0.1 0.2 0.1-0.3 0.1-1.5 0.1-2 0-2.3-0.2-1.6zm-160.2 3.3c0 3.4 0 3.5 0.2 1.8 0.1-1.1 0.1-2.7 0-3.6-0.1-1.6-0.2-1.4-0.2 1.8zm-47.5 0c0 1.8 0 2.5 0.1 1.6 0-0.9 0-2.4 0-3.2-0.1-0.9-0.1-0.2-0.1 1.6zm330.8 14.2c0 9.5 0 16.5 0.1 16.1 0.2-1.3 0.3-29.8 0.1-31.6-0.2-1-0.2 3.4-0.2 15.5zm-310.5-15.2c0 0.5 0 1.3 0.1 1.9l0.2 1v-1.8q0-3-0.3-1.1zm263.4-0.3c0 0.1-0.1 0.6-0.3 1-0.1 0.4-0.2 1.3-0.2 2.3 0 2.4-0.5 2.7-4.4 2.8-1.3 0-1.4 0-0.5 0.1 4.1 0.2 5-0.2 5-2.6 0-0.9 0.2-1.8 0.3-2.3 0.2-0.5 0.3-1.1 0.2-1.3q-0.1-0.5-0.1 0zm-20.9 3.6c0 1.4 0.1 3 0.3 3.5 0.1 0.6 0.2 1.4 0.2 1.8 0 0.4 0.2 1 0.3 1.4 0.1 0.4 0.3 0.9 0.3 1.1q0.1 0.4 0.1-0.1c0-0.2-0.1-0.7-0.2-1.1-0.1-0.4-0.3-1.3-0.3-2-0.1-0.8-0.2-1.7-0.3-2-0.1-0.3-0.3-1.5-0.4-2.8l-0.1-2.2zm48.2-0.6c0 0.8 0 1.2 0 0.8 0.1-0.4 0.1-1.1 0-1.6 0-0.4 0-0.1 0 0.8zm-103-1c0 0.2 0.1 0.7 0.3 1 0.3 0.5 0.4 0.6 0.4 0.3 0-0.2-0.1-0.5-0.3-0.6-0.1-0.1-0.3-0.4-0.3-0.6 0-0.4-0.1-0.4-0.1-0.1zm24.4 1.3c-0.1 0.4-0.3 0.8-0.4 1-0.2 0.1-0.3 0.4-0.2 0.5 0 0.1 0.3-0.3 0.8-1.5 0.1-0.3 0.3-0.6 0.3-0.6q0.1-0.2-0.1-0.2c-0.1 0-0.3 0.4-0.4 0.8zm-211.7 1c0 0.5 0 1.1 0.2 1.4 0.1 0.3 0.3 0.6 0.3 0.8q0.1 0.2 0.1-0.2c0-0.2-0.1-0.6-0.2-0.8-0.2-0.2-0.3-0.7-0.3-1.2l-0.1-0.8zm188.3 0.1c0.2 0.3 0.6 0.9 0.9 1.4 0.3 0.4 0.7 1 0.9 1.2 0.2 0.3 0.4 0.4 0.4 0.4 0.1-0.1 0-0.2-0.1-0.3-0.2-0.1-0.4-0.4-0.5-0.7-0.2-0.4-0.4-0.6-0.9-1.1-0.1-0.2-0.3-0.5-0.4-0.8 0-0.2-0.2-0.5-0.3-0.5-0.2-0.1-0.2 0 0 0.4zm-208.8 1.5c0.1 0.5 0.2 1.2 0.3 1.3 0.2 0.4 0.1-0.4-0.2-1.7-0.1-0.6-0.1-0.6-0.1 0.4zm47-0.5c-0.1 0.1-0.2 0.6-0.3 0.9-0.1 0.4-0.2 0.7-0.3 0.8-0.2 0.1-0.3 0.4-0.3 0.6 0 0.1-0.1 0.4-0.3 0.6-0.2 0.1-0.4 0.4-0.4 0.5 0 0.1 0 0.2-0.1 0.2-0.1 0-0.4 0.3-0.7 0.7-0.2 0.4-0.6 0.8-0.8 1-0.1 0.1-0.3 0.3-0.3 0.4 0 0.1-0.2 0.3-0.5 0.4-0.5 0.3-0.7 0.6-0.3 0.6 0.1 0 0.2-0.1 0.2-0.2 0-0.1 0.1-0.2 0.3-0.2 0.1-0.1 0.6-0.6 1-1.2 0.5-0.5 1-1.2 1.3-1.5 0.3-0.3 0.6-0.8 0.7-1.1 0.1-0.3 0.3-0.6 0.4-0.7 0.1-0.1 0.2-0.3 0.2-0.4 0-0.2 0.1-0.7 0.3-1 0.3-0.6 0.2-1-0.1-0.4zm184.1 0c-0.2 0.2-0.6 0.7-1 1.3-0.3 0.5-0.7 0.9-0.8 0.9 0 0-0.2 0.2-0.3 0.4-0.2 0.5 1.1-0.9 1.9-2.1 0.7-0.8 0.8-1.1 0.2-0.5zm79.2 0.5c-0.1 0.4-0.3 0.9-0.3 1.1 0 0.2-0.2 0.7-0.4 1.2-0.4 0.8-0.5 1-1 1.8 0 0.2-0.2 0.5-0.3 0.8-0.6 1.3-4.6 4.5-5.6 4.5-0.1 0-0.5 0.1-0.8 0.3-0.2 0.1-0.6 0.2-0.8 0.3q-0.4 0.1 0.2 0.1c0.3 0 0.6-0.1 0.6-0.1 0.1-0.1 0.3-0.2 0.6-0.3 1.7-0.4 5.1-3.1 5.9-4.6 0.1-0.2 0.4-0.9 0.7-1.4 0.3-0.6 0.7-1.3 0.8-1.5 0.2-0.3 0.3-0.8 0.3-1 0-0.3 0.1-0.7 0.3-1 0.1-0.3 0.2-0.7 0.2-0.8 0-0.2-0.2 0.1-0.4 0.6zm-37.9 0.5c-1.8 0.4-3.4 2-3.4 3.4 0 0.1-0.1 0.7-0.2 1.2-0.2 0.5-0.3 1.2-0.2 1.5 0 0.5 0 0.5 0-0.2 0.1-0.4 0.2-0.7 0.2-0.8 0.1-0.1 0.3-0.7 0.4-1.4 0.1-0.6 0.3-1.3 0.4-1.4 0.2-0.2 0.3-0.4 0.3-0.5 0-0.9 1.7-1.5 5.9-2 0.3 0-0.1-0.1-0.8-0.1-0.7 0-1.9 0.2-2.6 0.3zm-251.2 0.6c0 0.1 0.6 1.3 1.2 2.1 0.7 1.2 2.6 3.1 2.9 3.1 0.2 0 0.4 0.2 0.5 0.3 0.1 0.1 0.3 0.3 0.4 0.3 0.1 0 0-0.2-0.2-0.4-0.1-0.2-0.4-0.3-0.5-0.3-0.3 0-2.2-1.8-2.5-2.4-0.2-0.4-0.4-0.7-0.9-1.2-0.1-0.2-0.3-0.5-0.3-0.6 0-0.2-0.6-1.1-0.6-0.9zm165.4 0.3c0 0.2 0.1 0.5 0.2 0.7 0.1 0.2 0.3 0.7 0.4 1.2 0.1 0.4 0.3 0.8 0.4 0.8 0.2 0.1 0.2 0 0-0.3-0.1-0.3-0.2-0.7-0.3-1-0.3-1-0.7-1.9-0.7-1.4zm-31.8 0.6c0 0.2-0.1 0.5-0.2 0.7-0.2 0.1-0.3 0.4-0.3 0.6 0 0.2 0.1 0.2 0.1 0 0.1-0.2 0.2-0.4 0.4-0.6 0.1-0.1 0.2-0.4 0.2-0.7q-0.1-0.4-0.2 0zm56.7 0c0.7 0.7 1.9 1.4 1.4 0.8-0.2-0.2-0.4-0.4-0.5-0.4-0.2 0-0.4-0.1-0.6-0.3-0.1-0.2-0.3-0.4-0.4-0.4-0.1 0-0.1 0.2 0.1 0.3zm-211 0.9c0.1 0.6 0.2 1.2 0.4 1.4 0.3 0.5 0.4 0.1 0-0.4-0.1-0.2-0.2-0.8-0.3-1.2-0.1-0.8-0.1-0.8-0.1 0.2zm131.4-0.6c0 0.2 0.1 0.5 0.3 0.7 0.1 0.2 0.2 0.5 0.2 0.7 0 0.6 0.7 1.7 1.4 2.5 0.3 0.3 0.5 0.6 0.5 0.7 0 0 0.2 0.3 0.4 0.5 0.2 0.2 0.6 0.6 0.7 0.8 0.2 0.3 0.7 0.7 1.1 0.9 0.6 0.4 0.6 0.4 0.3 0-0.2-0.2-0.4-0.4-0.5-0.4-0.2 0-0.9-0.7-1.6-1.6-0.1-0.2-0.5-0.7-0.8-1-0.3-0.3-0.6-0.8-0.7-1.1-0.1-0.3-0.3-0.6-0.4-0.6-0.1-0.1-0.2-0.3-0.2-0.6 0-0.6-0.6-2-0.7-1.5zm96.1 0.5c-0.2 0.1-0.3 0.3-0.2 0.3 0.2 0 1-0.7 0.8-0.7-0.1 0-0.4 0.2-0.6 0.4zm-0.9 0.5c0 0.1-0.2 0.2-0.5 0.4-0.4 0.1-0.7 0.3-0.7 0.4-0.2 0.3 0 0.2 0.7-0.2 0.7-0.5 1-0.8 0.7-0.8-0.1 0-0.2 0.1-0.2 0.2zm-73.2 0.7c-0.1 0.2-0.3 0.5-0.3 0.6 0.1 0.3 0.1 0.3 0.2 0 0-0.1 0.2-0.4 0.3-0.5 0.2-0.2 0.2-0.4 0.2-0.4-0.1-0.1-0.2 0.1-0.4 0.3zm60.2-0.2c0.3 0.1 0.6 0.3 0.7 0.4q0.2 0.2 0.1-0.1c0-0.2-0.3-0.3-0.5-0.4-0.5-0.1-0.7-0.1-0.3 0.1zm1.4 0.6c0.2 0.1 0.4 0.2 0.5 0.3 0.1 0.2 0.4 0.3 0.6 0.3h0.4l-0.4-0.2c-0.2-0.1-0.4-0.2-0.5-0.3 0-0.1-0.3-0.2-0.6-0.2-0.3 0-0.4 0.1 0 0.1zm9.2 0.1c-0.1 0.2-0.4 0.3-0.6 0.4q-0.4 0.1 0 0.1c0.2 0 0.6-0.2 0.9-0.4 0.5-0.2 0.6-0.3 0.3-0.3-0.2 0-0.5 0.1-0.6 0.2zm-36.9 0.2c0 0.2 0.1 0.6 0.3 0.8 0.1 0.2 0.3 0.6 0.4 0.8 0.7 1.2 0.7 1.2 0.7 0.8 0-0.2-0.1-0.5-0.3-0.5-0.1-0.1-0.2-0.3-0.3-0.6-0.1-0.2-0.2-0.5-0.3-0.7-0.2-0.1-0.3-0.4-0.4-0.6v-0.3zm-186.7 0.6c0 0.2 0.1 0.6 0.3 0.9q0.3 0.5 0.4 0.3c0-0.2-0.2-0.4-0.3-0.5-0.1-0.1-0.3-0.4-0.3-0.7-0.1-0.4-0.1-0.4-0.1 0zm151.4 0.5c-0.4 0.5-0.8 0.9-0.8 1 0 0.1-0.5 0.5-1 0.9-0.5 0.4-0.9 0.8-0.9 0.9q0 0.2 0.1 0c0.1-0.1 0.5-0.4 0.9-0.7 0.5-0.4 1-0.9 1.3-1.3 0.3-0.4 0.8-0.9 1-1.2 0.3-0.2 0.4-0.5 0.3-0.5 0 0-0.5 0.4-0.9 0.9zm65.1-0.6c0.8 0.3 1.1 0.3 0.7 0-0.2-0.1-0.6-0.3-0.8-0.3-0.4 0.1-0.4 0.1 0.1 0.3zm4.8 0c-0.3 0.2-0.3 0.2 0 0.2 0.1 0 0.5-0.1 0.7-0.2 0.4-0.2 0.4-0.2 0.1-0.2-0.2 0-0.5 0.1-0.8 0.2zm-2.9 0.4c0.5 0 1.3 0 1.7 0 0.4-0.1 0-0.1-0.9-0.1-0.9 0-1.3 0-0.8 0.1zm64 0.2c-0.6 0.1-2.3 0.2-3.9 0.3l-2.9 0.1 2.3 0.1c1.3 0 3.4-0.1 4.7-0.2 1.3-0.2 2.9-0.3 3.4-0.4 0.6 0 0.2 0-0.8 0-1 0-2.3 0-2.8 0.1zm6.9 0.1c0.9 0.5 1 1.2 0.4 2.6l-0.4 0.7 0.5 0.5c0.2 0.2 0.6 0.4 0.8 0.4 0.4-0.1 0.4-0.1 0.1-0.2-0.2 0-0.6-0.2-0.8-0.4-0.4-0.3-0.4-0.3 0.1-1.1 0.6-1.1 0.1-2.8-0.9-2.8-0.2 0-0.2 0.1 0.2 0.3zm-26.6 0.4c0 0.3 0.1 0.6 0.3 0.8 0.1 0.1 0.2 0.3 0.2 0.5 0 0.2 0.2 0.6 0.3 1 0.6 1.4 0.7 1.6 0.9 1.8 0.1 0.2 0.4 0.7 0.6 1.3 0.9 1.8 1.5 1.4 1.7-1.2 0.1-0.6 0.2-1.5 0.4-1.8 0.1-0.4 0.2-0.9 0.2-1.2 0-0.8-0.5 1-0.7 2.5-0.2 2.3-0.8 3-1.3 1.9-0.1-0.3-0.3-0.7-0.4-0.7-0.1-0.1-0.1-0.3-0.1-0.4 0-0.2-0.2-0.4-0.3-0.5-0.2-0.3-0.4-0.7-0.9-2.3-0.2-0.3-0.4-0.8-0.5-1.1-0.1-0.3-0.2-0.7-0.3-0.8q-0.1-0.4-0.1 0.2zm-222.2 0.1c0 0.1-0.2 0.3-0.4 0.4-0.4 0.1-1.3 0.7-1.1 0.7 0.2 0 1.2-0.6 1.8-1.1 0.3-0.2 0.4-0.3 0.1-0.3-0.1 0-0.3 0.1-0.4 0.3zm233.5 0.3c-0.3 0.2-0.5 0.4-0.5 0.5 0 0.1 0.3 0 0.6-0.3 0.4-0.2 0.9-0.4 1.1-0.5 0.3 0 0.3 0-0.1-0.1-0.3 0-0.8 0.2-1.1 0.4zm-248.6 0.4c0.2 0.1 0.5 0.4 0.9 0.5 0.3 0.2 0.7 0.3 0.8 0.4 0.1 0 0-0.1-0.1-0.2-0.1-0.2-0.4-0.3-0.7-0.4-0.3 0-0.5-0.2-0.6-0.3 0-0.2-0.2-0.3-0.3-0.3q-0.2 0 0 0.3zm-24.7 0.1c0 0.1 0.1 0.4 0.2 0.5 0.1 0.1 0.3 0.5 0.3 0.8 0.1 0.3 0.3 0.7 0.4 0.8 0.1 0.2 0.3 0.4 0.3 0.6 0 0.1 0.1 0.5 0.3 0.8q0.3 0.5 0.3 0.2c0-0.2 0-0.3-0.1-0.4-0.1-0.1-0.3-0.4-0.4-0.7-0.1-0.4-0.3-0.8-0.4-0.9-0.2-0.1-0.3-0.4-0.3-0.6 0-0.2-0.1-0.6-0.3-0.9q-0.3-0.5-0.3-0.2zm108.9 0.3c-0.1 0.6 0.3 1.5 0.4 1.3 0-0.2 0-0.6-0.2-1-0.2-0.6-0.2-0.6-0.2-0.3zm-71.5 0.3c-0.1 0.1-0.5 0.2-0.7 0.2-0.6 0-1.9 0.6-1.6 0.7 0.1 0 0.4-0.1 0.7-0.2 0.3-0.2 0.7-0.3 0.9-0.3 0.3 0 0.7-0.2 0.9-0.4q0.5-0.3 0.3-0.3c-0.2 0-0.4 0.1-0.5 0.3zm149.9-0.1c0 0.1 0.1 0.3 0.2 0.5 0.1 0.1 0.3 0.4 0.4 0.7 0.1 0.3 0.3 0.6 0.4 0.6 0.1 0 0-0.4-0.3-0.9-0.6-1.1-0.7-1.3-0.7-0.9zm85.1 0.3c-0.2 0.3-0.3 0.9-0.3 1.4 0 0.5-0.1 1.3-0.3 1.8-0.1 0.5-0.3 1.4-0.3 2.1-0.1 0.7-0.2 1.6-0.4 1.9-0.1 0.4-0.2 0.9-0.2 1.2 0 0.9 0.5-0.8 0.7-2.4 0.1-0.7 0.2-1.6 0.3-1.9 0.1-0.3 0.2-1.2 0.3-2 0.1-0.8 0.2-1.7 0.4-1.9 0.1-0.2 0.2-0.5 0.1-0.5 0-0.1-0.1 0-0.3 0.3zm-245.4 0.2c0.3 0 0.7 0.2 0.9 0.3 0.2 0.1 0.5 0.2 0.7 0.2 0.5 0-1-0.7-1.6-0.7l-0.5 0.1zm3.7 0.6c0.5 0.1 1.5 0.1 2.2 0 0.9-0.1 0.8-0.1-1.1-0.1-1.7 0-2 0.1-1.1 0.1zm116.5 0.1c0 0.2-0.2 0.3-0.3 0.3-0.1 0-0.5 0.1-0.9 0.3-0.4 0.2-0.8 0.4-1.1 0.4-0.5 0-1.7 0.5-1.4 0.6 0.1 0 0.4 0 0.6-0.2 0.2-0.1 0.6-0.3 0.9-0.3 0.5 0 1.7-0.5 2.4-1q0.5-0.3 0.2-0.3c-0.2 0-0.3 0.1-0.4 0.2zm-37.8 1.2c0.1 1 0.6 2.3 0.6 1.6 0-0.2-0.1-0.5-0.2-0.7-0.1-0.2-0.2-0.7-0.3-1.1-0.1-0.8-0.1-0.7-0.1 0.2zm26.4-0.4c0.4 0.2 0.8 0.3 1 0.3 0.2 0 0.5 0.2 0.7 0.3 0.2 0.1 0.4 0.2 0.6 0.3 0.5 0-0.3-0.6-1-0.7-0.4 0-0.8-0.2-0.9-0.3-0.1-0.1-0.4-0.2-0.6-0.2-0.3 0-0.2 0 0.2 0.3zm52.7 0.1c0 0.2 0.5 0.7 0.6 0.6 0-0.1-0.1-0.3-0.3-0.4-0.2-0.2-0.3-0.3-0.3-0.2zm102.7 0.6c1.2 0.4 5.1 0.5 6.2 0.1 0.4-0.1 0.9-0.3 1.1-0.3 0.2-0.1 0.1-0.1-0.3-0.1-0.3 0-0.8 0.1-1 0.2-0.3 0.2-1 0.2-2.7 0.2-1.7 0-2.5 0-2.8-0.2-0.2-0.1-0.6-0.2-0.9-0.2-0.4 0-0.4 0 0.4 0.3zm-151.2 0.3c0.5 0 1.4 0 2 0 0.5-0.1 0-0.1-1-0.1-1.1 0-1.6 0-1 0.1zm49.2 0c0 0.1 0.1 0.3 0.2 0.3 0.2 0.1 0.3 0.2 0.3 0.3 0 0.1 0.1 0.4 0.3 0.5 0.2 0.2 0.4 0.4 0.4 0.5 0 0.2 1.1 1.3 1.3 1.3 0 0-0.1-0.2-0.4-0.4-0.2-0.3-0.7-0.9-1-1.4-0.7-1-1.1-1.4-1.1-1.1zm-187.4 0.7c0 0.2 0.1 0.4 0.3 0.6 0.1 0.1 0.3 0.4 0.4 0.6 0.1 0.2 0.3 0.4 0.4 0.4q0.1-0.1-0.1-0.3c-0.1-0.1-0.3-0.5-0.6-0.9-0.2-0.4-0.4-0.5-0.4-0.4zm108.2 1.3c0 0.2 0.1 0.5 0.3 0.6 0.1 0.2 0.2 0.4 0.3 0.6q0.1 0.3 0.1 0.1c0-0.2-0.1-0.6-0.3-1-0.3-0.5-0.4-0.5-0.4-0.3zm-107 0.5c0 0.1 0.3 0.6 0.7 1.1 0.4 0.5 0.7 1.1 0.8 1.2 0 0.2 0.2 0.4 0.2 0.4 0.1 0 0.2 0.1 0.2 0.2 0 0.2 0.7 1 1.2 1.2 0.1 0.1 0-0.1-0.4-0.5-0.3-0.3-0.6-0.6-0.6-0.7 0-0.1-0.3-0.6-0.7-1.1-0.3-0.4-0.8-1.1-1-1.4-0.2-0.3-0.4-0.5-0.4-0.4zm190.1 2c0.8 0.8 1.6 1.5 1.8 1.6 1.3 0.9 1.7 1.1 2.1 1.5 0.3 0.2 0.6 0.3 0.6 0.3 0.1-0.1-0.3-0.4-0.7-0.6-2-1.4-2.4-1.7-3.5-2.8-0.7-0.6-1.4-1.2-1.5-1.3-0.1-0.1 0.4 0.5 1.2 1.3zm-82.4-0.7c0 0.2 0.1 0.4 0.3 0.5 0.1 0.1 0.2 0.3 0.2 0.5 0 0.2 0.2 0.5 0.4 0.7 0.2 0.3 0.3 0.5 0.3 0.6 0 0.1 0.2 0.3 0.3 0.5 0.3 0.4 0.4 0.4 0.4 0.2 0-0.2-0.1-0.3-0.2-0.3-0.1 0-0.3-0.2-0.4-0.6-0.1-0.3-0.3-0.6-0.4-0.6-0.1-0.1-0.2-0.3-0.2-0.5 0-0.1-0.2-0.5-0.3-0.8q-0.4-0.5-0.4-0.2zm160 3c0 0.3-0.1 0.8-0.2 1.2-1.1 2.8 0.2 5.5 2.1 4.5 0.3-0.1 0.5-0.1 1.2 0.2 0.7 0.4 0.9 0.5 1.5 1 0.3 0.3 1.2 0.9 1.6 1.1 0.1 0.1 0.5 0.3 0.9 0.5 0.4 0.3 0.9 0.5 1.1 0.6 0.3 0.2 0.7 0.4 1 0.5 0.3 0.2 0.6 0.2 0.6 0.2 0.1-0.1-0.2-0.2-0.6-0.4-0.4-0.2-0.8-0.4-1-0.5-0.1-0.1-0.4-0.2-0.7-0.3-0.2-0.1-1.1-0.7-1.9-1.3-3-2-3-2-4-1.8-0.7 0.2-0.9 0.2-1.4-0.1l-0.5-0.2v-1.5c0-0.9 0.1-1.8 0.2-2.3 0.2-0.4 0.3-1.1 0.2-1.4 0-0.5 0-0.5-0.1 0zm-158.1 0.6c0 0.2 0.1 0.4 0.2 0.4 0.2 0.1 0.3 0.3 0.3 0.4 0 0.2 0.2 0.6 0.4 0.8 0.3 0.3 0.5 0.5 0.5 0.6 0 0.1 0.1 0.2 0.2 0.2 0.2 0 0-0.3-0.3-0.7-0.4-0.3-0.6-0.7-0.6-0.8 0-0.2-0.2-0.5-0.4-0.7-0.2-0.3-0.3-0.4-0.3-0.2zm85.3 0.7c0.1 0.1 0.2 0.3 0.4 0.4 0.2 0.1 0.5 0.3 0.6 0.4 0.1 0.1 0.3 0.2 0.5 0.2q0.3 0-0.3-0.4c-0.3-0.1-0.6-0.3-0.7-0.3-0.1 0-0.2-0.1-0.3-0.3q-0.2-0.3-0.2 0zm-190.4 0c0 0.2 1.5 1.7 1.6 1.6 0 0-0.3-0.4-0.8-0.9-0.5-0.4-0.8-0.8-0.8-0.7zm192.7 1.3c0.3 0.2 0.6 0.4 0.8 0.4q0.2-0.1-0.1-0.2c-0.2-0.1-0.5-0.2-0.5-0.3-0.1-0.1-0.3-0.2-0.4-0.2q-0.3 0 0.2 0.3zm-190.9 0.5c0 0.2 2.4 2.3 3 2.5 0.2 0 0.3 0.2 0.3 0.3 0 0 0.2 0.2 0.5 0.2 0.3 0.1 0.6 0.3 0.7 0.4 0.1 0.1 0.3 0.2 0.4 0.2 0.1 0 0-0.1-0.3-0.3-0.2-0.2-0.5-0.4-0.6-0.4-0.1 0-0.2 0-2.2-1.5-0.7-0.6-1.4-1.2-1.5-1.3-0.2-0.2-0.3-0.2-0.3-0.1zm192.3 0.2c0.2 0.2 0.6 0.3 0.9 0.3h0.4l-0.4-0.1c-0.3 0-0.6-0.1-0.7-0.3-0.1-0.1-0.3-0.2-0.4-0.2-0.1 0 0 0.1 0.2 0.3zm-87.1-0.1c0 0.3 2.7 3.1 4.1 4.2 0.4 0.3 0.8 0.7 1 0.9 0.6 0.5 1.3 1 1.5 1q0.4 0 0-0.1c-0.1-0.1-0.3-0.2-0.4-0.3-0.1-0.1-0.5-0.4-0.8-0.6-1.7-1.3-3.6-3.1-4.8-4.5-0.3-0.4-0.6-0.7-0.6-0.6zm88.5 0.6c0 0.2 0.4 0.4 0.7 0.3 0.1 0 0-0.1-0.3-0.2-0.2-0.1-0.4-0.1-0.4-0.1zm26.4 0.3c0.2 0.1 0.3 0.3 0.3 1.1v0.9l0.2-0.8c0.2-0.9 0-1.3-0.5-1.3q-0.4 0 0 0.1zm-25.1 0.2c0.2 0.1 0.4 0.3 0.5 0.4 0.1 0.1 0.3 0.2 0.5 0.2 0.3 0 0.2-0.1-0.3-0.4-0.3-0.2-0.7-0.3-0.8-0.3-0.1 0-0.1 0.1 0.1 0.1zm23.6 0.1c-0.2 0.1-0.5 0.3-0.7 0.3q-0.4 0.1 0.1 0.1c0.3 0 0.6-0.1 0.7-0.2 0.1-0.1 0.3-0.3 0.5-0.3 0.4-0.1 0.4-0.1 0.1-0.1-0.2 0-0.5 0.1-0.7 0.2zm-21.5 0.7c0.3 0.2 0.8 0.3 1.4 0.4 0.9 0 0.9 0 0.2-0.1-0.4-0.1-1-0.2-1.2-0.3-0.5-0.4-0.8-0.3-0.4 0zm19.3 0c-0.2 0.1-0.7 0.2-1.1 0.3-0.6 0.1-0.6 0.1 0.3 0.1 0.5-0.1 1-0.2 1.2-0.4 0.3-0.3 0.1-0.3-0.4 0zm-72.2 1c-0.4 0.3-1 0.7-1.3 0.9-0.3 0.3-0.4 0.4-0.3 0.4 0.2 0 0.4-0.1 0.6-0.3 0.2-0.2 0.4-0.4 0.5-0.4 0.1 0 0.3-0.1 0.5-0.3 0.5-0.8 1.3-0.2 2.1 1.5 0.1 0.3 0.3 0.5 0.4 0.5 0.2 0 0.2-0.2 0.1-0.3-0.2-0.1-1.1-1.4-1.1-1.6 0-0.1-0.2-0.4-0.4-0.6l-0.4-0.3zm55.9-0.3c0.3 0.1 0.9 0.2 1.2 0.2h0.7l-0.8-0.3c-1.2-0.3-1.8-0.3-1.1 0.1zm13.4-0.2c-0.1 0.1-0.4 0.2-0.7 0.3-0.5 0.1-0.4 0.1 0.3 0 0.8 0 1.6-0.4 0.9-0.4-0.2 0-0.4 0-0.5 0.1zm-8.9 0.5c1.5 0.1 3.8 0.1 5.2 0 1.3 0 0.2 0-2.7 0-2.8 0-3.9 0-2.5 0zm15.6 0.7c0 0.2-0.1 0.5-0.2 0.7-0.2 0.2-0.3 0.5-0.3 0.6q0 0.4 0.4-0.3c0.2-0.3 0.3-0.8 0.2-1 0-0.4 0-0.4-0.1 0zm-215 0c0 0.2 0.6 0.7 0.7 0.5 0.1 0-0.1-0.2-0.3-0.3-0.2-0.2-0.4-0.2-0.4-0.2zm51.4 0.3c-0.2 0.9-0.6 1.8-1.1 2.3-0.5 0.6-0.3 0.7 0.2 0.1 0.5-0.5 1.1-1.9 1.1-2.4l-0.1-0.5zm-50.3 0.5c0.1 0.2 0.3 0.3 0.6 0.4 0.3 0 0.6 0.2 0.7 0.3 0.1 0.2 0.3 0.3 0.4 0.3 0.3-0.1-0.6-0.7-0.9-0.7-0.1 0-0.4-0.2-0.6-0.3-0.3-0.3-0.3-0.3-0.2 0zm135.8-0.1c0 0.1-0.2 0.3-0.5 0.4-0.3 0.1-0.5 0.2-0.5 0.3 0 0.1-0.2 0.2-0.4 0.3-1 0.6-1.2 0.7-1 0.7 0.2 0 0.4-0.1 0.6-0.2 0.1-0.1 0.4-0.3 0.6-0.4 0.2-0.2 0.5-0.3 0.6-0.4 0.1-0.1 0.3-0.3 0.5-0.4 0.2-0.1 0.3-0.3 0.2-0.4q-0.1-0.1-0.1 0.1zm-103.7 0.3c-0.3 0.2-0.7 0.3-0.7 0.4-0.1 0.1-0.3 0.2-0.5 0.3-0.3 0-0.6 0.2-0.7 0.3-0.2 0.1-0.4 0.3-0.6 0.3-0.3 0.1-0.3 0.1 0 0.1 0.2 0 0.5-0.1 0.6-0.2 0.1-0.1 0.4-0.3 0.7-0.4 0.2 0 0.5-0.2 0.6-0.3 0.5-0.4 1.9-0.5 2.2-0.2 0.2 0.4 1.3 1.1 1.5 1.1 0.2 0-1.7-1.4-2.1-1.5-0.1-0.1-0.6 0-1 0.1zm150.6 0.9c-0.6 0.3-1.6 1.5-1.6 2 0 0.1 0.1 0 0.2-0.2 0.1-0.2 0.2-0.4 0.3-0.4 0 0 0.2-0.2 0.3-0.5 0.3-0.6 1.1-0.9 2.2-0.8l0.7 0.1-0.7-0.2c-0.4-0.2-0.7-0.3-0.7-0.3 0 0-0.3 0.1-0.7 0.3zm-180.4 0c0.1 0 0.3 0.2 0.4 0.3 0.1 0.1 0.3 0.2 0.5 0.2h0.4l-0.4-0.1c-0.2-0.1-0.4-0.3-0.5-0.4 0-0.1-0.2-0.1-0.4-0.1q-0.3 0 0 0.1zm138.3 0.1c0 0.1 0.2 0.3 0.4 0.5l0.4 0.2-0.4-0.4c-0.2-0.3-0.3-0.5-0.4-0.5 0-0.1 0 0 0 0.2zm72.4 0.1c-0.1 0.1-0.3 0.3-0.3 0.4 0 0.2-1.2 1.4-1.5 1.5-0.2 0.1-0.3 0.2-0.3 0.3 0 0.1-0.3 0.2-0.6 0.3-0.5 0.1-0.8 0.3-0.6 0.5 0.1 0.1 0.2 0 0.4-0.2 0.1-0.1 0.3-0.2 0.4-0.2 0.5 0 3.1-2.6 2.9-2.9-0.1 0-0.2 0.1-0.4 0.3zm22.1-0.1c0 0.2-0.1 0.5-0.2 0.6-0.1 0.1-0.1 0.3-0.1 0.4 0.1 0.3 0.5-0.5 0.4-1 0-0.3 0-0.3-0.1 0zm60.7 0.1c-0.1 0.1-0.4 0.2-0.6 0.2-0.1 0-0.5 0.1-0.8 0.2-1 0.5-1.9 0.9-2.3 1-0.3 0.1-0.2 0.1 0.1 0.1 0.3 0 0.6-0.1 0.7-0.2 0.1-0.1 0.4-0.3 0.7-0.4 0.3 0 0.7-0.2 0.9-0.3 0.7-0.4 1.9-0.5 2.3-0.1 0.6 0.6 2.1 1.7 2.2 1.7 0.1 0 0.3 0.1 0.4 0.3 0.1 0.1 0.3 0.2 0.4 0.2 0.3 0-0.1-0.3-0.7-0.6-0.4-0.2-0.8-0.5-1.1-0.8-1.7-1.5-1.8-1.6-2.2-1.3zm-110.5 0.3c0.3 0.2 0.6 0.4 0.8 0.4 0.1 0 0.4 0.1 0.5 0.2 0.1 0.2 0.3 0.3 0.4 0.3 0.3 0-0.6-0.7-0.9-0.7-0.2 0-0.4-0.1-0.5-0.2-0.2-0.2-0.4-0.3-0.5-0.3q-0.3 0 0.2 0.3zm127.3 0.6c-1.3 2.6-5.6 3.9-9.2 2.8-1.1-0.4-1.7-0.3-0.8 0 1.2 0.5 6.4 0.4 7.1 0 0.3-0.1 0.7-0.3 0.8-0.3 0.3 0 2.1-1.7 2.1-2.1 0-0.1 0.1-0.3 0.2-0.5 0.2-0.1 0.3-0.4 0.2-0.5 0-0.2-0.2 0.1-0.4 0.6zm-308.5-0.3c0.4 0.3 1.3 0.5 1.7 0.4 0.1-0.1-0.1-0.1-0.3-0.1-0.3 0-0.7-0.2-0.9-0.3-0.2-0.1-0.4-0.2-0.6-0.2-0.2 0-0.2 0 0.1 0.2zm24.1 0c-0.2 0.1-0.6 0.3-0.8 0.3-0.3 0-0.5 0-0.3 0.1 0.3 0.1 1.2-0.1 1.6-0.4 0.3-0.2 0.3-0.2 0.1-0.2-0.1 0-0.4 0.1-0.6 0.2zm7.4 0c0 0.2 0.3 0.3 0.6 0.4 0.3 0 0.5 0.2 0.6 0.3 0 0.1 0.1 0.2 0.2 0.2 0.4 0-0.2-0.4-0.8-0.8-0.5-0.2-0.7-0.2-0.6-0.1zm70.6 0.1c0.2 0.2 0.6 0.3 0.7 0.3 0.2 0 0.4 0.1 0.5 0.3 0.1 0.1 0.3 0.2 0.4 0.2 0.1 0 0.5 0.2 0.9 0.4 0.3 0.2 0.7 0.3 0.9 0.3 0.2 0 0-0.1-0.4-0.3-0.3-0.2-1.2-0.6-1.9-0.9-1.5-0.7-1.6-0.8-1.1-0.3zm25.8 0l-0.6 0.4 0.6-0.2c0.2 0 0.6-0.2 0.7-0.3 0.4-0.4 0.1-0.3-0.7 0.1zm133.6 0.5c0.3 0.2 0.7 0.3 0.8 0.3 0.1 0 0-0.1-0.3-0.3-0.7-0.4-1.1-0.4-0.5 0zm-259.4 0.1c0.2 0.1 0.4 0.2 0.5 0.2 0.2 0 0.2 0 0-0.2-0.5-0.3-0.7-0.3-0.5 0zm20 0c-0.3 0.2-0.3 0.2-0.1 0.2 0.1 0 0.4-0.1 0.5-0.2 0.2-0.3 0-0.3-0.4 0zm104.7 0c-0.3 0.3-0.2 0.3 0.2 0.1 0.1 0 0.3-0.1 0.3-0.2 0-0.3-0.3-0.2-0.5 0.1zm-82.8 0.3c-0.2 0.1-0.6 0.4-0.8 0.4-0.3 0.2-0.3 0.2 0.1 0.2 0.1 0 0.4-0.1 0.6-0.3 0.1-0.2 0.4-0.4 0.5-0.4 0.1 0 0.2-0.1 0.1-0.2 0 0-0.3 0.1-0.5 0.3zm139.8-0.1q1.2 0.7 0.4 0c-0.2-0.2-0.6-0.3-0.8-0.3-0.2 0-0.1 0.1 0.4 0.3zm46.8 0.4c0 0.4 0 0.6 0 0.4 0.1-0.2 0.1-0.6 0-0.8 0-0.2 0 0 0 0.4zm-227.2-0.2c0.3 0 0.8 0.1 1.1 0.3 0.3 0.1 0.7 0.2 0.9 0.2 0.3 0 0.1-0.1-0.5-0.3-0.5-0.2-1.2-0.4-1.5-0.3h-0.5zm16.2 0.2c-0.7 0.3-0.8 0.3-0.3 0.3 0.3 0 0.7-0.1 0.9-0.2 0.2-0.1 0.5-0.3 0.8-0.3l0.5-0.1h-0.5c-0.3 0-0.9 0.1-1.4 0.3zm13.9-0.2c0.2 0 0.4 0.2 0.5 0.3 0.2 0.1 0.4 0.3 0.6 0.3 0.3 0 0.2-0.1-0.3-0.4-0.3-0.2-0.7-0.3-0.9-0.3q-0.2 0 0.1 0.1zm91.9 0.1c-0.1 0.2-0.4 0.3-0.6 0.3-0.3 0.1-0.3 0.1 0.1 0.1 0.2 0 0.5-0.1 0.6-0.2 0.1-0.1 0.4-0.3 0.6-0.3 0.3-0.1 0.3-0.1-0.1-0.1-0.2 0-0.5 0.1-0.6 0.2zm137.5 0c0.2 0.2 0.5 0.3 0.8 0.4 0.2 0 0.6 0.2 0.9 0.3 0.2 0.2 0.6 0.3 0.7 0.3 0.4 0-1-0.7-1.4-0.7-0.2 0-0.5-0.1-0.7-0.3-0.1-0.1-0.4-0.2-0.5-0.2-0.1 0 0 0.1 0.2 0.2zm23.9 0c-0.3 0.1-0.9 0.4-1.3 0.6-0.5 0.2-0.8 0.4-0.6 0.4 0.2 0 0.5-0.1 0.8-0.3 0.2-0.1 0.6-0.3 0.9-0.3 0.4-0.1 1.2-0.6 0.9-0.6-0.1 0-0.4 0.1-0.7 0.2zm-101.6 0.5c0.3 0.1 0.7 0.3 0.8 0.3 0.2 0 0.5 0.1 0.7 0.3 0.2 0.1 0.5 0.2 0.5 0.1 0.2-0.1-0.3-0.4-1-0.5-0.3-0.1-0.7-0.2-0.8-0.4-0.1-0.1-0.4-0.2-0.5-0.2q-0.3 0 0.3 0.4zm-8.6 0.2c-0.2 0.2-0.3 0.4-0.3 0.6 0 0.1-0.1 0.2-0.2 0.2-0.1 0-0.2 0.2-0.4 0.6-0.1 0.3-0.3 0.6-0.4 0.6-0.1 0.1-0.2 0.3-0.2 0.5 0 0.5 0.1 0.4 0.8-1 0.4-0.7 0.7-1.2 0.9-1.5 0.1-0.1 0.2-0.3 0.2-0.3-0.1-0.1-0.3 0-0.4 0.3zm-169.5 0.1c0.7 0.3 9.2 0.4 9.9 0.1 0.2-0.2 0.5-0.3 0.7-0.3 0.6-0.2-0.5-0.1-1.5 0.1-1.4 0.4-6.6 0.4-7.9 0-1.4-0.4-2-0.3-1.2 0.1zm29 0c1.2 0.6 7.3 0.3 6.6-0.3 0 0-0.3 0-0.6 0.2-0.7 0.4-5 0.4-5.6 0-0.3-0.1-0.6-0.2-0.8-0.2q-0.3 0 0.4 0.3zm70.2-0.1c0.1 0.2 0.5 0.3 0.9 0.3 0.4 0.1 0.5 0.1 0.2 0-0.2 0-0.5-0.2-0.7-0.3-0.5-0.3-0.8-0.3-0.4 0zm17.2 0c-0.1 0.2-0.5 0.3-0.8 0.3-0.7 0-0.7 0-0.1 0.1 0.5 0 1.6-0.3 1.6-0.6 0-0.2-0.5 0-0.7 0.2zm106.7 0.6c-0.1 0.2-0.2 0.4-0.1 0.5 0.1 0.1 0.4-0.3 0.4-0.6 0-0.3-0.1-0.3-0.3 0.1zm35.8-0.2c0.3 0 0.6 0.2 0.8 0.3 0.2 0.1 0.7 0.2 1.1 0.2h0.8l-0.8-0.1c-0.4-0.1-0.9-0.2-1.1-0.3-0.2-0.1-0.6-0.2-0.8-0.2-0.4 0-0.4 0 0 0.1zm17.2 0.1c-0.2 0.1-0.7 0.2-1.1 0.3l-0.7 0.1h0.7c0.4 0 1-0.1 1.3-0.2 0.3-0.1 0.7-0.3 0.9-0.3q0.3-0.1-0.2-0.1c-0.3 0-0.7 0.1-0.9 0.2zm13.2 0.1c0.3 0.2 0.7 0.3 0.9 0.3q0.4-0.1-0.1-0.1c-0.2 0-0.4-0.1-0.5-0.3-0.2-0.1-0.4-0.2-0.5-0.2-0.2 0-0.1 0.1 0.2 0.3zm36.2-0.2c0.3 0 0.7 0 0.9 0 0.3 0 0.1-0.1-0.4-0.1-0.6 0-0.8 0.1-0.5 0.1zm-224.2 0.3c0.2 0.1 0.5 0.2 0.7 0.2h0.5l-0.5-0.2c-0.7-0.3-0.9-0.3-0.7 0zm12.4 0c-0.5 0.2-0.5 0.2 0 0.2 0.2 0 0.6-0.1 0.7-0.2 0.5-0.3 0.1-0.3-0.7 0zm67.3 0.1c0.3 0 0.8 0.2 1 0.3 0.2 0.1 0.5 0.2 0.7 0.2 0.7 0-0.6-0.5-1.5-0.6-0.7-0.1-0.7-0.1-0.2 0.1zm15.7 0.2c-0.6 0.2-0.6 0.3-0.2 0.2 0.8-0.1 2-0.6 1.4-0.6-0.2 0-0.7 0.2-1.2 0.4zm-92.4 0.2c2.3 0.2 4.7 0.2 7 0 1.6-0.1 1.1-0.2-3.5-0.2-4.4 0-5 0.1-3.5 0.2zm158-0.1c1.7 0.4 2.9 0.5 5.6 0.5 2.7 0 3.4 0 5.7-0.5l0.7-0.1h-0.7c-0.4 0-1.2 0.1-1.8 0.2-1.5 0.3-6 0.3-7.8 0-1.5-0.3-3-0.3-1.7-0.1zm-77.3 0.5c1.7 0.5 7.9 0.5 9.3 0q0.8-0.3 0.4-0.3c-0.2 0-0.6 0.1-1 0.2-0.7 0.3-7.2 0.4-7.7 0.1-0.2 0-0.7-0.2-1.2-0.2l-1-0.1zm37.7 0.1c0 0.2-0.1 0.6-0.3 0.8-0.1 0.3-0.2 0.5-0.2 0.7 0.2 0.3 0.7-1.1 0.6-1.5v-0.4zm-55.2 1.8c-0.1 0.2-0.2 0.5-0.2 0.7 0 0.2-0.1 0.3-0.2 0.3-0.1 0-0.3 0.3-0.4 0.6-0.2 0.3-0.3 0.6-0.5 0.7-0.1 0-0.1 0.2-0.1 0.4 0 0.3 0.4-0.3 0.8-1 0.1-0.2 0.4-0.8 0.6-1.2 0.5-0.8 0.5-1.1 0-0.5zm54.2 0.9c-0.2 0.4-0.5 1.2-0.9 1.8-0.3 0.7-0.4 1.1-0.3 1.1 0.2-0.1 0.3-0.3 0.4-0.5 0-0.3 0.2-0.6 0.3-0.8 0.1-0.1 0.3-0.4 0.3-0.7 0.1-0.3 0.3-0.6 0.4-0.8 0.2-0.1 0.3-0.9 0.2-0.8 0 0-0.2 0.3-0.4 0.7zm-56 2.5c-0.2 0.3-0.6 0.9-0.9 1.5-0.1 0.3-0.3 0.5-0.4 0.6-0.1 0.1-0.2 0.3-0.2 0.5 0 0.4 0 0.4 0.2 0.1 0.1-0.2 0.3-0.6 0.5-0.9 0.1-0.3 0.4-0.7 0.5-0.9 0.1-0.3 0.3-0.6 0.5-0.8 0.1-0.1 0.2-0.3 0.1-0.4 0 0-0.1 0.1-0.3 0.3zm54.2 1.1c-0.1 0.1-0.4 0.5-0.6 0.7-0.1 0.2-0.2 0.4-0.1 0.4 0.2 0 1.1-1.3 1-1.4 0-0.1-0.2 0.1-0.3 0.3zm-1.4 2.1c-0.5 0.6-4 4.3-4.6 4.7q-0.3 0.1 0 0.1c0.2 0 4.5-4.1 4.5-4.3 0-0.1 0.1-0.4 0.3-0.6 0.2-0.3 0.4-0.6 0.3-0.6 0-0.1-0.3 0.2-0.5 0.7zm-54.7 0.4c-0.2 0.2-0.3 0.8-0.3 1.1v0.7l0.2-0.7c0-0.4 0.2-0.9 0.3-1 0.1-0.2 0.2-0.4 0.1-0.5 0-0.1-0.1 0.1-0.3 0.4zm-0.3 2.4c0 0.4 0.8 1.5 0.9 1.3 0.1 0-0.1-0.3-0.3-0.5-0.2-0.2-0.4-0.6-0.5-0.8l-0.1-0.4zm1.4 1.6c0.1 0.3 0.3 0.4 0.5 0.4q0.4 0 0.2-0.1c-0.2-0.1-0.4-0.2-0.6-0.4-0.3-0.2-0.3-0.2-0.1 0.1zm1.3 0.7c0.2 0.1 0.5 0.3 0.8 0.3 0.3 0.1 0.7 0.2 0.8 0.4 0.1 0.1 0.3 0.2 0.4 0.2 0.3 0-0.6-0.7-0.9-0.7-0.2 0-0.5-0.1-0.6-0.2-0.5-0.4-0.7-0.4-0.5 0zm46.7 0.1c-0.2 0.1-0.5 0.3-0.6 0.3-0.1 0-0.2 0-0.3 0.1 0 0.2-1 0.9-1.5 1.1q-1.5 0.7-0.9 0.7c0.2 0 0.4-0.1 0.5-0.2 0.1-0.1 0.4-0.3 0.7-0.4 0.3-0.2 0.6-0.4 0.6-0.5 0 0 0.1-0.1 0.1-0.1 0.2 0 2.1-1.2 2.1-1.3 0-0.2-0.3-0.1-0.7 0.3zm-44.1 1c0.2 0.1 0.4 0.2 0.4 0.3 0.1 0.1 0.3 0.2 0.5 0.2h0.4l-0.4-0.2c-0.2-0.1-0.4-0.2-0.5-0.3 0-0.1-0.2-0.2-0.4-0.2h-0.4zm1.9 0.9c0.2 0.2 0.6 0.3 0.8 0.3h0.3l-0.3-0.1c-0.2 0-0.5-0.2-0.6-0.3-0.1-0.2-0.3-0.3-0.4-0.3-0.1 0 0 0.2 0.2 0.4zm1.4 0.6c0.2 0.1 0.6 0.3 1 0.4 0.4 0 0.9 0.2 1.1 0.3 0.2 0.1 0.6 0.2 0.8 0.2q0.4 0 0.2-0.1c-0.2 0-0.5-0.2-0.8-0.3-0.3-0.2-0.8-0.3-1.1-0.3-0.2 0-0.6-0.1-0.8-0.2-0.4-0.4-0.7-0.3-0.4 0zm35.2 0.5c-0.3 0.1-0.6 0.3-0.8 0.3q-0.3 0.1 0.1 0.1c0.3 0 0.6-0.1 0.8-0.2 0.2-0.1 0.5-0.3 0.7-0.3l0.3-0.1h-0.3c-0.2-0.1-0.6 0-0.8 0.2zm-30.8 0.8c0.3 0.1 0.9 0.3 1.1 0.3h0.6l-0.6-0.2c-0.2 0-0.6-0.2-0.8-0.3-0.2-0.1-0.6-0.2-0.7-0.2-0.2 0 0 0.2 0.4 0.4zm28.5-0.2c-0.2 0.1-0.5 0.3-0.9 0.3l-0.6 0.2h0.5c0.3 0 0.9-0.2 1.2-0.3 0.5-0.3 0.6-0.4 0.3-0.4-0.2 0-0.4 0.1-0.5 0.2zm-26.3 0.7c0.1 0.2 1.2 0.5 2 0.5 0.4 0 0.8 0.1 0.9 0.2 0.1 0.1 0.6 0.2 1.1 0.2 0.7 0.1 0.8 0.1 0.4-0.1-1.2-0.3-1.9-0.5-2.5-0.5-0.4 0-0.9-0.1-1.2-0.2-0.4-0.3-0.9-0.4-0.7-0.1zm23.5 0.1c-0.3 0.1-0.8 0.2-1.3 0.2q-0.9 0.1-0.4 0.1c0.8 0.1 1.9-0.1 2.3-0.3 0.4-0.4 0-0.4-0.6 0zm-3.5 0.7l-0.7 0.2 0.8-0.1c0.5 0 0.9-0.1 1-0.2 0.3-0.3-0.2-0.2-1.1 0.1zm-13.1 0.4c3.6 0.5 6.6 0.5 10.4 0 0.9-0.1 0.7-0.1-0.7-0.1-2.3 0.2-6.8 0.2-9 0-1.4 0-1.6 0-0.7 0.1z"/>
	</g>
</svg>